  0
SECTION
  2
HEADER
  9
$ACADVER
  1
AC1014
  9
$HANDSEED
  5
FFFF
  9
$MEASUREMENT
 70
     1
  0
ENDSEC
  0
SECTION
  2
TABLES
  0
TABLE
  2
VPORT
  5
8
330
0
100
AcDbSymbolTable
 70
     4
  0
VPORT
  5
2E
330
8
100
AcDbSymbolTableRecord
100
AcDbViewportTableRecord
  2
*ACTIVE
 70
     0
 10
0.0
 20
0.0
 11
1.0
 21
1.0
 12
210.0
 22
148.5
 13
0.0
 23
0.0
 14
10.0
 24
10.0
 15
10.0
 25
10.0
 16
0.0
 26
0.0
 36
1.0
 17
0.0
 27
0.0
 37
0.0
 40
341.0
 41
1.24
 42
50.0
 43
0.0
 44
0.0
 50
0.0
 51
0.0
 71
     0
 72
   100
 73
     1
 74
     3
 75
     0
 76
     0
 77
     0
 78
     0
  0
ENDTAB
  0
TABLE
  2
LTYPE
  5
5
330
0
100
AcDbSymbolTable
 70
     1
  0
LTYPE
  5
14
330
5
100
AcDbSymbolTableRecord
100
AcDbLinetypeTableRecord
  2
BYBLOCK
 70
     0
  3

 72
    65
 73
     0
 40
0.0
  0
LTYPE
  5
15
330
5
100
AcDbSymbolTableRecord
100
AcDbLinetypeTableRecord
  2
BYLAYER
 70
     0
  3

 72
    65
 73
     0
 40
0.0
  0
LTYPE
  5
16
330
5
100
AcDbSymbolTableRecord
100
AcDbLinetypeTableRecord
  2
CONTINUOUS
 70
     0
  3
Solid line
 72
    65
 73
     0
 40
0.0
  0
ENDTAB
  0
TABLE
  2
LAYER
  5
2
100
AcDbSymbolTable
 70
2
  0
LAYER
  5
50
100
AcDbSymbolTableRecord
100
AcDbLayerTableRecord
  2
0
 70
0
  6
CONTINUOUS
  0
LAYER
  5
51
100
AcDbSymbolTableRecord
100
AcDbLayerTableRecord
  2
Layer_1
 70
0
  6
CONTINUOUS
  0
ENDTAB
  0
TABLE
  2
STYLE
  5
3
330
0
100
AcDbSymbolTable
 70
     1
  0
STYLE
  5
11
330
3
100
AcDbSymbolTableRecord
100
AcDbTextStyleTableRecord
  2
STANDARD
 70
     0
 40
0.0
 41
1.0
 50
0.0
 71
     0
 42
2.5
  3
txt
  4

  0
ENDTAB
  0
TABLE
  2
VIEW
  5
6
330
0
100
AcDbSymbolTable
 70
     0
  0
ENDTAB
  0
TABLE
  2
UCS
  5
7
330
0
100
AcDbSymbolTable
 70
     0
  0
ENDTAB
  0
TABLE
  2
APPID
  5
9
330
0
100
AcDbSymbolTable
 70
     2
  0
APPID
  5
12
330
9
100
AcDbSymbolTableRecord
100
AcDbRegAppTableRecord
  2
ACAD
 70
     0
  0
ENDTAB
  0
TABLE
  2
DIMSTYLE
  5
A
330
0
100
AcDbSymbolTable
 70
     1
  0
DIMSTYLE
105
27
330
A
100
AcDbSymbolTableRecord
100
AcDbDimStyleTableRecord
  2
ISO-25
 70
     0
  3

  4

  5

  6

  7

 40
1.0
 41
2.5
 42
0.625
 43
3.75
 44
1.25
 45
0.0
 46
0.0
 47
0.0
 48
0.0
140
2.5
141
2.5
142
0.0
143
0.03937007874016
144
1.0
145
0.0
146
1.0
147
0.625
 71
     0
 72
     0
 73
     0
 74
     0
 75
     0
 76
     0
 77
     1
 78
     8
170
     0
171
     3
172
     1
173
     0
174
     0
175
     0
176
     0
177
     0
178
     0
270
     2
271
     2
272
     2
273
     2
274
     3
340
11
275
     0
280
     0
281
     0
282
     0
283
     0
284
     8
285
     0
286
     0
287
     3
288
     0
  0
ENDTAB
  0
TABLE
  2
BLOCK_RECORD
  5
1
330
0
100
AcDbSymbolTable
 70
     1
  0
BLOCK_RECORD
  5
1F
330
1
100
AcDbSymbolTableRecord
100
AcDbBlockTableRecord
  2
*MODEL_SPACE
  0
BLOCK_RECORD
  5
1B
330
1
100
AcDbSymbolTableRecord
100
AcDbBlockTableRecord
  2
*PAPER_SPACE
  0
ENDTAB
  0
ENDSEC
  0
SECTION
  2
BLOCKS
  0
BLOCK
  5
20
330
1F
100
AcDbEntity
  8
0
100
AcDbBlockBegin
  2
*MODEL_SPACE
 70
     0
 10
0.0
 20
0.0
 30
0.0
  3
*MODEL_SPACE
  1

  0
ENDBLK
  5
21
330
1F
100
AcDbEntity
  8
0
100
AcDbBlockEnd
  0
BLOCK
  5
1C
330
1B
100
AcDbEntity
 67
     1
  8
0
100
AcDbBlockBegin
  2
*PAPER_SPACE
  1

  0
ENDBLK
  5
1D
330
1B
100
AcDbEntity
 67
     1
  8
0
100
AcDbBlockEnd
  0
ENDSEC
  0
SECTION
  2
ENTITIES
  0
LWPOLYLINE
  5
100
100
AcDbEntity
  8
Layer_1
 62
7
100
AcDbPolyline
 90
92
 70
1
 10
5.316868
 20
137.896742
 30
0.0
 10
5.316868
 20
143.566385
 30
0.0
 10
3.729368
 20
143.566385
 30
0.0
 10
3.729368
 20
149.236029
 30
0.0
 10
9.954858
 20
149.236029
 30
0.0
 10
9.954858
 20
147.648527
 30
0.0
 10
16.180348
 20
147.648527
 30
0.0
 10
16.180348
 20
149.236029
 30
0.0
 10
22.405838
 20
149.236029
 30
0.0
 10
22.405838
 20
147.648527
 30
0.0
 10
28.631329
 20
147.648527
 30
0.0
 10
28.631329
 20
149.236029
 30
0.0
 10
34.856819
 20
149.236029
 30
0.0
 10
34.856819
 20
147.648527
 30
0.0
 10
41.082309
 20
147.648527
 30
0.0
 10
41.082309
 20
149.236029
 30
0.0
 10
47.307799
 20
149.236029
 30
0.0
 10
47.307799
 20
147.648527
 30
0.0
 10
53.533289
 20
147.648527
 30
0.0
 10
53.533289
 20
149.236029
 30
0.0
 10
59.758779
 20
149.236029
 30
0.0
 10
59.758779
 20
147.648527
 30
0.0
 10
65.984269
 20
147.648527
 30
0.0
 10
65.984269
 20
149.236029
 30
0.0
 10
72.209759
 20
149.236029
 30
0.0
 10
72.209759
 20
147.648527
 30
0.0
 10
78.435248
 20
147.648527
 30
0.0
 10
78.435248
 20
149.236029
 30
0.0
 10
84.660741
 20
149.236029
 30
0.0
 10
84.660741
 20
147.648527
 30
0.0
 10
90.886227
 20
147.648527
 30
0.0
 10
90.886227
 20
149.236029
 30
0.0
 10
97.111720
 20
149.236029
 30
0.0
 10
97.111720
 20
147.648527
 30
0.0
 10
103.337213
 20
147.648527
 30
0.0
 10
103.337213
 20
149.236029
 30
0.0
 10
109.562698
 20
149.236029
 30
0.0
 10
109.562698
 20
143.566385
 30
0.0
 10
107.975203
 20
143.566385
 30
0.0
 10
107.975203
 20
137.896742
 30
0.0
 10
109.562698
 20
137.896742
 30
0.0
 10
109.562698
 20
132.227100
 30
0.0
 10
107.975203
 20
132.227100
 30
0.0
 10
107.975203
 20
126.557457
 30
0.0
 10
109.562698
 20
126.557457
 30
0.0
 10
109.562698
 20
120.887814
 30
0.0
 10
107.975203
 20
120.887814
 30
0.0
 10
107.975203
 20
115.218171
 30
0.0
 10
109.562698
 20
115.218171
 30
0.0
 10
109.562698
 20
109.548528
 30
0.0
 10
103.337213
 20
109.548528
 30
0.0
 10
103.337213
 20
111.136029
 30
0.0
 10
97.111720
 20
111.136029
 30
0.0
 10
97.111720
 20
109.548528
 30
0.0
 10
90.886227
 20
109.548528
 30
0.0
 10
90.886227
 20
111.136029
 30
0.0
 10
84.660741
 20
111.136029
 30
0.0
 10
84.660741
 20
109.548528
 30
0.0
 10
78.435248
 20
109.548528
 30
0.0
 10
78.435248
 20
111.136029
 30
0.0
 10
72.209759
 20
111.136029
 30
0.0
 10
72.209759
 20
109.548528
 30
0.0
 10
65.984269
 20
109.548528
 30
0.0
 10
65.984269
 20
111.136029
 30
0.0
 10
59.758779
 20
111.136029
 30
0.0
 10
59.758779
 20
109.548528
 30
0.0
 10
53.533289
 20
109.548528
 30
0.0
 10
53.533289
 20
111.136029
 30
0.0
 10
47.307799
 20
111.136029
 30
0.0
 10
47.307799
 20
109.548528
 30
0.0
 10
41.082309
 20
109.548528
 30
0.0
 10
41.082309
 20
111.136029
 30
0.0
 10
34.856819
 20
111.136029
 30
0.0
 10
34.856819
 20
109.548528
 30
0.0
 10
28.631329
 20
109.548528
 30
0.0
 10
28.631329
 20
111.136029
 30
0.0
 10
22.405838
 20
111.136029
 30
0.0
 10
22.405838
 20
109.548528
 30
0.0
 10
16.180348
 20
109.548528
 30
0.0
 10
16.180348
 20
111.136029
 30
0.0
 10
9.954858
 20
111.136029
 30
0.0
 10
9.954858
 20
109.548528
 30
0.0
 10
3.729368
 20
109.548528
 30
0.0
 10
3.729368
 20
115.218171
 30
0.0
 10
5.316868
 20
115.218171
 30
0.0
 10
5.316868
 20
120.887814
 30
0.0
 10
3.729368
 20
120.887814
 30
0.0
 10
3.729368
 20
126.557457
 30
0.0
 10
5.316868
 20
126.557457
 30
0.0
 10
5.316868
 20
132.227100
 30
0.0
 10
3.729368
 20
132.227100
 30
0.0
 10
3.729368
 20
137.896742
 30
0.0
  0
SPLINE
  5
101
100
AcDbEntity
  8
Layer_1
 62
7
100
AcDbSpline
 70
8
 71
3
 72
8
 73
4
 74
0
 40
0
 40
0
 40
0
 40
0
 40
1
 40
1
 40
1
 40
1
 10
25.036108
 20
143.415196
 30
0.0
 10
25.036108
 20
142.942564
 30
0.0
 10
25.288254
 20
142.505833
 30
0.0
 10
25.697566
 20
142.269517
 30
0.0
  0
SPLINE
  5
102
100
AcDbEntity
  8
Layer_1
 62
7
100
AcDbSpline
 70
8
 71
3
 72
8
 73
4
 74
0
 40
0
 40
0
 40
0
 40
0
 40
1
 40
1
 40
1
 40
1
 10
25.697566
 20
142.269517
 30
0.0
 10
26.106878
 20
142.033200
 30
0.0
 10
26.611171
 20
142.033200
 30
0.0
 10
27.020483
 20
142.269517
 30
0.0
  0
SPLINE
  5
103
100
AcDbEntity
  8
Layer_1
 62
7
100
AcDbSpline
 70
8
 71
3
 72
8
 73
4
 74
0
 40
0
 40
0
 40
0
 40
0
 40
1
 40
1
 40
1
 40
1
 10
27.020483
 20
142.269517
 30
0.0
 10
27.429795
 20
142.505833
 30
0.0
 10
27.681942
 20
142.942564
 30
0.0
 10
27.681942
 20
143.415196
 30
0.0
  0
SPLINE
  5
104
100
AcDbEntity
  8
Layer_1
 62
7
100
AcDbSpline
 70
8
 71
3
 72
8
 73
4
 74
0
 40
0
 40
0
 40
0
 40
0
 40
1
 40
1
 40
1
 40
1
 10
27.681942
 20
143.415196
 30
0.0
 10
27.681942
 20
143.887829
 30
0.0
 10
27.429795
 20
144.324559
 30
0.0
 10
27.020483
 20
144.560876
 30
0.0
  0
SPLINE
  5
105
100
AcDbEntity
  8
Layer_1
 62
7
100
AcDbSpline
 70
8
 71
3
 72
8
 73
4
 74
0
 40
0
 40
0
 40
0
 40
0
 40
1
 40
1
 40
1
 40
1
 10
27.020483
 20
144.560876
 30
0.0
 10
26.611171
 20
144.797192
 30
0.0
 10
26.106878
 20
144.797192
 30
0.0
 10
25.697566
 20
144.560876
 30
0.0
  0
SPLINE
  5
106
100
AcDbEntity
  8
Layer_1
 62
7
100
AcDbSpline
 70
8
 71
3
 72
8
 73
4
 74
0
 40
0
 40
0
 40
0
 40
0
 40
1
 40
1
 40
1
 40
1
 10
25.697566
 20
144.560876
 30
0.0
 10
25.288254
 20
144.324559
 30
0.0
 10
25.036108
 20
143.887829
 30
0.0
 10
25.036108
 20
143.415196
 30
0.0
  0
LWPOLYLINE
  5
107
100
AcDbEntity
  8
Layer_1
 62
7
100
AcDbPolyline
 90
4
 70
1
 10
13.129858
 20
141.827694
 30
0.0
 10
9.954858
 20
141.827694
 30
0.0
 10
9.954858
 20
145.002692
 30
0.0
 10
13.129858
 20
145.002692
 30
0.0
  0
LWPOLYLINE
  5
108
100
AcDbEntity
  8
Layer_1
 62
7
100
AcDbPolyline
 90
1
 70
1
 10
25.036108
 20
143.415196
 30
0.0
  0
LWPOLYLINE
  5
109
100
AcDbEntity
  8
Layer_1
 62
7
100
AcDbPolyline
 90
4
 70
1
 10
35.619441
 20
142.356864
 30
0.0
 10
31.650691
 20
142.356864
 30
0.0
 10
31.650691
 20
144.473529
 30
0.0
 10
35.619441
 20
144.473529
 30
0.0
  0
SPLINE
  5
10a
100
AcDbEntity
  8
Layer_1
 62
7
100
AcDbSpline
 70
8
 71
3
 72
8
 73
4
 74
0
 40
0
 40
0
 40
0
 40
0
 40
1
 40
1
 40
1
 40
1
 10
28.071035
 20
76.475612
 30
0.0
 10
28.071035
 20
77.609930
 30
0.0
 10
27.465883
 20
78.658084
 30
0.0
 10
26.483535
 20
79.225243
 30
0.0
  0
SPLINE
  5
10b
100
AcDbEntity
  8
Layer_1
 62
7
100
AcDbSpline
 70
8
 71
3
 72
8
 73
4
 74
0
 40
0
 40
0
 40
0
 40
0
 40
1
 40
1
 40
1
 40
1
 10
26.483535
 20
79.225243
 30
0.0
 10
25.501186
 20
79.792402
 30
0.0
 10
24.290883
 20
79.792402
 30
0.0
 10
23.308534
 20
79.225243
 30
0.0
  0
SPLINE
  5
10c
100
AcDbEntity
  8
Layer_1
 62
7
100
AcDbSpline
 70
8
 71
3
 72
8
 73
4
 74
0
 40
0
 40
0
 40
0
 40
0
 40
1
 40
1
 40
1
 40
1
 10
23.308534
 20
79.225243
 30
0.0
 10
22.326186
 20
78.658084
 30
0.0
 10
21.721034
 20
77.609930
 30
0.0
 10
21.721034
 20
76.475612
 30
0.0
  0
SPLINE
  5
10d
100
AcDbEntity
  8
Layer_1
 62
7
100
AcDbSpline
 70
8
 71
3
 72
8
 73
4
 74
0
 40
0
 40
0
 40
0
 40
0
 40
1
 40
1
 40
1
 40
1
 10
21.721034
 20
76.475612
 30
0.0
 10
21.721034
 20
75.341293
 30
0.0
 10
22.326186
 20
74.293140
 30
0.0
 10
23.308534
 20
73.725981
 30
0.0
  0
SPLINE
  5
10e
100
AcDbEntity
  8
Layer_1
 62
7
100
AcDbSpline
 70
8
 71
3
 72
8
 73
4
 74
0
 40
0
 40
0
 40
0
 40
0
 40
1
 40
1
 40
1
 40
1
 10
23.308534
 20
73.725981
 30
0.0
 10
24.290883
 20
73.158822
 30
0.0
 10
25.501186
 20
73.158822
 30
0.0
 10
26.483535
 20
73.725981
 30
0.0
  0
SPLINE
  5
10f
100
AcDbEntity
  8
Layer_1
 62
7
100
AcDbSpline
 70
8
 71
3
 72
8
 73
4
 74
0
 40
0
 40
0
 40
0
 40
0
 40
1
 40
1
 40
1
 40
1
 10
26.483535
 20
73.725981
 30
0.0
 10
27.465883
 20
74.293140
 30
0.0
 10
28.071035
 20
75.341293
 30
0.0
 10
28.071035
 20
76.475612
 30
0.0
  0
LWPOLYLINE
  5
110
100
AcDbEntity
  8
Layer_1
 62
7
100
AcDbPolyline
 90
108
 70
1
 10
3.729368
 20
49.415955
 30
0.0
 10
5.316868
 20
49.415955
 30
0.0
 10
5.316868
 20
55.429210
 30
0.0
 10
3.729368
 20
55.429210
 30
0.0
 10
3.729368
 20
61.442468
 30
0.0
 10
5.316868
 20
61.442468
 30
0.0
 10
5.316868
 20
67.455726
 30
0.0
 10
3.729368
 20
67.455726
 30
0.0
 10
3.729368
 20
73.468983
 30
0.0
 10
5.316868
 20
73.468983
 30
0.0
 10
5.316868
 20
79.482241
 30
0.0
 10
3.729368
 20
79.482241
 30
0.0
 10
3.729368
 20
85.495498
 30
0.0
 10
5.316868
 20
85.495498
 30
0.0
 10
5.316868
 20
91.508755
 30
0.0
 10
3.729368
 20
91.508755
 30
0.0
 10
3.729368
 20
97.522013
 30
0.0
 10
5.316868
 20
97.522013
 30
0.0
 10
5.316868
 20
103.535270
 30
0.0
 10
3.729368
 20
103.535270
 30
0.0
 10
3.729368
 20
107.961028
 30
0.0
 10
9.954858
 20
107.961028
 30
0.0
 10
9.954858
 20
109.548528
 30
0.0
 10
16.180348
 20
109.548528
 30
0.0
 10
16.180348
 20
107.961028
 30
0.0
 10
22.405838
 20
107.961028
 30
0.0
 10
22.405838
 20
109.548528
 30
0.0
 10
28.631329
 20
109.548528
 30
0.0
 10
28.631329
 20
107.961028
 30
0.0
 10
34.856819
 20
107.961028
 30
0.0
 10
34.856819
 20
109.548528
 30
0.0
 10
41.082309
 20
109.548528
 30
0.0
 10
41.082309
 20
107.961028
 30
0.0
 10
47.307799
 20
107.961028
 30
0.0
 10
47.307799
 20
109.548528
 30
0.0
 10
53.533289
 20
109.548528
 30
0.0
 10
53.533289
 20
107.961028
 30
0.0
 10
59.758779
 20
107.961028
 30
0.0
 10
59.758779
 20
109.548528
 30
0.0
 10
65.984269
 20
109.548528
 30
0.0
 10
65.984269
 20
107.961028
 30
0.0
 10
72.209759
 20
107.961028
 30
0.0
 10
72.209759
 20
109.548528
 30
0.0
 10
78.435248
 20
109.548528
 30
0.0
 10
78.435248
 20
107.961028
 30
0.0
 10
84.660741
 20
107.961028
 30
0.0
 10
84.660741
 20
109.548528
 30
0.0
 10
90.886227
 20
109.548528
 30
0.0
 10
90.886227
 20
107.961028
 30
0.0
 10
97.111720
 20
107.961028
 30
0.0
 10
97.111720
 20
109.548528
 30
0.0
 10
103.337213
 20
109.548528
 30
0.0
 10
103.337213
 20
107.961028
 30
0.0
 10
109.562698
 20
107.961028
 30
0.0
 10
109.562698
 20
103.535270
 30
0.0
 10
107.975203
 20
103.535270
 30
0.0
 10
107.975203
 20
97.522013
 30
0.0
 10
109.562698
 20
97.522013
 30
0.0
 10
109.562698
 20
91.508755
 30
0.0
 10
107.975203
 20
91.508755
 30
0.0
 10
107.975203
 20
85.495498
 30
0.0
 10
109.562698
 20
85.495498
 30
0.0
 10
109.562698
 20
79.482241
 30
0.0
 10
107.975203
 20
79.482241
 30
0.0
 10
107.975203
 20
73.468983
 30
0.0
 10
109.562698
 20
73.468983
 30
0.0
 10
109.562698
 20
67.455726
 30
0.0
 10
107.975203
 20
67.455726
 30
0.0
 10
107.975203
 20
61.442468
 30
0.0
 10
109.562698
 20
61.442468
 30
0.0
 10
109.562698
 20
55.429210
 30
0.0
 10
107.975203
 20
55.429210
 30
0.0
 10
107.975203
 20
49.415955
 30
0.0
 10
109.562698
 20
49.415955
 30
0.0
 10
109.562698
 20
43.402694
 30
0.0
 10
103.337213
 20
43.402694
 30
0.0
 10
103.337213
 20
44.990197
 30
0.0
 10
97.111720
 20
44.990197
 30
0.0
 10
97.111720
 20
43.402694
 30
0.0
 10
90.886227
 20
43.402694
 30
0.0
 10
90.886227
 20
44.990197
 30
0.0
 10
84.660741
 20
44.990197
 30
0.0
 10
84.660741
 20
43.402694
 30
0.0
 10
78.435248
 20
43.402694
 30
0.0
 10
78.435248
 20
44.990197
 30
0.0
 10
72.209759
 20
44.990197
 30
0.0
 10
72.209759
 20
43.402694
 30
0.0
 10
65.984269
 20
43.402694
 30
0.0
 10
65.984269
 20
44.990197
 30
0.0
 10
59.758779
 20
44.990197
 30
0.0
 10
59.758779
 20
43.402694
 30
0.0
 10
53.533289
 20
43.402694
 30
0.0
 10
53.533289
 20
44.990197
 30
0.0
 10
47.307799
 20
44.990197
 30
0.0
 10
47.307799
 20
43.402694
 30
0.0
 10
41.082309
 20
43.402694
 30
0.0
 10
41.082309
 20
44.990197
 30
0.0
 10
34.856819
 20
44.990197
 30
0.0
 10
34.856819
 20
43.402694
 30
0.0
 10
28.631329
 20
43.402694
 30
0.0
 10
28.631329
 20
44.990197
 30
0.0
 10
22.405838
 20
44.990197
 30
0.0
 10
22.405838
 20
43.402694
 30
0.0
 10
16.180348
 20
43.402694
 30
0.0
 10
16.180348
 20
44.990197
 30
0.0
 10
9.954858
 20
44.990197
 30
0.0
 10
9.954858
 20
43.402694
 30
0.0
 10
3.729368
 20
43.402694
 30
0.0
  0
SPLINE
  5
111
100
AcDbEntity
  8
Layer_1
 62
7
100
AcDbSpline
 70
8
 71
3
 72
8
 73
4
 74
0
 40
0
 40
0
 40
0
 40
0
 40
1
 40
1
 40
1
 40
1
 10
59.821034
 20
76.475612
 30
0.0
 10
59.821272
 20
77.610089
 30
0.0
 10
59.216173
 20
78.658491
 30
0.0
 10
58.233726
 20
79.225798
 30
0.0
  0
SPLINE
  5
112
100
AcDbEntity
  8
Layer_1
 62
7
100
AcDbSpline
 70
8
 71
3
 72
8
 73
4
 74
0
 40
0
 40
0
 40
0
 40
0
 40
1
 40
1
 40
1
 40
1
 10
58.233726
 20
79.225798
 30
0.0
 10
57.251280
 20
79.793105
 30
0.0
 10
56.040788
 20
79.793105
 30
0.0
 10
55.058342
 20
79.225798
 30
0.0
  0
SPLINE
  5
113
100
AcDbEntity
  8
Layer_1
 62
7
100
AcDbSpline
 70
8
 71
3
 72
8
 73
4
 74
0
 40
0
 40
0
 40
0
 40
0
 40
1
 40
1
 40
1
 40
1
 10
55.058342
 20
79.225798
 30
0.0
 10
54.075895
 20
78.658491
 30
0.0
 10
53.470796
 20
77.610089
 30
0.0
 10
53.471034
 20
76.475612
 30
0.0
  0
SPLINE
  5
114
100
AcDbEntity
  8
Layer_1
 62
7
100
AcDbSpline
 70
8
 71
3
 72
8
 73
4
 74
0
 40
0
 40
0
 40
0
 40
0
 40
1
 40
1
 40
1
 40
1
 10
53.471034
 20
76.475612
 30
0.0
 10
53.470796
 20
75.341135
 30
0.0
 10
54.075895
 20
74.292733
 30
0.0
 10
55.058342
 20
73.725426
 30
0.0
  0
SPLINE
  5
115
100
AcDbEntity
  8
Layer_1
 62
7
100
AcDbSpline
 70
8
 71
3
 72
8
 73
4
 74
0
 40
0
 40
0
 40
0
 40
0
 40
1
 40
1
 40
1
 40
1
 10
55.058342
 20
73.725426
 30
0.0
 10
56.040788
 20
73.158118
 30
0.0
 10
57.251280
 20
73.158118
 30
0.0
 10
58.233726
 20
73.725426
 30
0.0
  0
SPLINE
  5
116
100
AcDbEntity
  8
Layer_1
 62
7
100
AcDbSpline
 70
8
 71
3
 72
8
 73
4
 74
0
 40
0
 40
0
 40
0
 40
0
 40
1
 40
1
 40
1
 40
1
 10
58.233726
 20
73.725426
 30
0.0
 10
59.216173
 20
74.292733
 30
0.0
 10
59.821272
 20
75.341135
 30
0.0
 10
59.821034
 20
76.475612
 30
0.0
  0
LWPOLYLINE
  5
117
100
AcDbEntity
  8
Layer_1
 62
7
100
AcDbPolyline
 90
1
 70
1
 10
28.071035
 20
76.475612
 30
0.0
  0
SPLINE
  5
118
100
AcDbEntity
  8
Layer_1
 62
7
100
AcDbSpline
 70
8
 71
3
 72
8
 73
4
 74
0
 40
0
 40
0
 40
0
 40
0
 40
1
 40
1
 40
1
 40
1
 10
91.571037
 20
76.475612
 30
0.0
 10
91.571037
 20
77.609931
 30
0.0
 10
90.965885
 20
78.658084
 30
0.0
 10
89.983537
 20
79.225244
 30
0.0
  0
SPLINE
  5
119
100
AcDbEntity
  8
Layer_1
 62
7
100
AcDbSpline
 70
8
 71
3
 72
8
 73
4
 74
0
 40
0
 40
0
 40
0
 40
0
 40
1
 40
1
 40
1
 40
1
 10
89.983537
 20
79.225244
 30
0.0
 10
89.001188
 20
79.792403
 30
0.0
 10
87.790884
 20
79.792403
 30
0.0
 10
86.808535
 20
79.225244
 30
0.0
  0
SPLINE
  5
11a
100
AcDbEntity
  8
Layer_1
 62
7
100
AcDbSpline
 70
8
 71
3
 72
8
 73
4
 74
0
 40
0
 40
0
 40
0
 40
0
 40
1
 40
1
 40
1
 40
1
 10
86.808535
 20
79.225244
 30
0.0
 10
85.826186
 20
78.658084
 30
0.0
 10
85.221035
 20
77.609931
 30
0.0
 10
85.221035
 20
76.475612
 30
0.0
  0
SPLINE
  5
11b
100
AcDbEntity
  8
Layer_1
 62
7
100
AcDbSpline
 70
8
 71
3
 72
8
 73
4
 74
0
 40
0
 40
0
 40
0
 40
0
 40
1
 40
1
 40
1
 40
1
 10
85.221035
 20
76.475612
 30
0.0
 10
85.221035
 20
75.341293
 30
0.0
 10
85.826186
 20
74.293139
 30
0.0
 10
86.808535
 20
73.725980
 30
0.0
  0
SPLINE
  5
11c
100
AcDbEntity
  8
Layer_1
 62
7
100
AcDbSpline
 70
8
 71
3
 72
8
 73
4
 74
0
 40
0
 40
0
 40
0
 40
0
 40
1
 40
1
 40
1
 40
1
 10
86.808535
 20
73.725980
 30
0.0
 10
87.790884
 20
73.158821
 30
0.0
 10
89.001188
 20
73.158821
 30
0.0
 10
89.983537
 20
73.725980
 30
0.0
  0
SPLINE
  5
11d
100
AcDbEntity
  8
Layer_1
 62
7
100
AcDbSpline
 70
8
 71
3
 72
8
 73
4
 74
0
 40
0
 40
0
 40
0
 40
0
 40
1
 40
1
 40
1
 40
1
 10
89.983537
 20
73.725980
 30
0.0
 10
90.965885
 20
74.293139
 30
0.0
 10
91.571037
 20
75.341293
 30
0.0
 10
91.571037
 20
76.475612
 30
0.0
  0
LWPOLYLINE
  5
11e
100
AcDbEntity
  8
Layer_1
 62
7
100
AcDbPolyline
 90
1
 70
1
 10
59.821034
 20
76.475612
 30
0.0
  0
LWPOLYLINE
  5
11f
100
AcDbEntity
  8
Layer_1
 62
7
100
AcDbPolyline
 90
1
 70
1
 10
91.571037
 20
76.475612
 30
0.0
  0
LWPOLYLINE
  5
120
100
AcDbEntity
  8
Layer_1
 62
7
100
AcDbPolyline
 90
4
 70
1
 10
73.843950
 20
102.669362
 30
0.0
 10
39.448118
 20
102.669362
 30
0.0
 10
39.448118
 20
94.202695
 30
0.0
 10
73.843950
 20
94.202695
 30
0.0
  0
LWPOLYLINE
  5
121
100
AcDbEntity
  8
Layer_1
 62
7
100
AcDbPolyline
 90
108
 70
1
 10
109.562697
 20
-2.298068
 30
0.0
 10
109.562697
 20
3.715193
 30
0.0
 10
103.337207
 20
3.715193
 30
0.0
 10
103.337207
 20
2.127691
 30
0.0
 10
97.111717
 20
2.127691
 30
0.0
 10
97.111717
 20
3.715193
 30
0.0
 10
90.886227
 20
3.715193
 30
0.0
 10
90.886227
 20
2.127691
 30
0.0
 10
84.660737
 20
2.127691
 30
0.0
 10
84.660737
 20
3.715193
 30
0.0
 10
78.435247
 20
3.715193
 30
0.0
 10
78.435247
 20
2.127691
 30
0.0
 10
72.209756
 20
2.127691
 30
0.0
 10
72.209756
 20
3.715193
 30
0.0
 10
65.984266
 20
3.715193
 30
0.0
 10
65.984266
 20
2.127691
 30
0.0
 10
59.758776
 20
2.127691
 30
0.0
 10
59.758776
 20
3.715193
 30
0.0
 10
53.533286
 20
3.715193
 30
0.0
 10
53.533286
 20
2.127691
 30
0.0
 10
47.307796
 20
2.127691
 30
0.0
 10
47.307796
 20
3.715193
 30
0.0
 10
41.082306
 20
3.715193
 30
0.0
 10
41.082306
 20
2.127691
 30
0.0
 10
34.856817
 20
2.127691
 30
0.0
 10
34.856817
 20
3.715193
 30
0.0
 10
28.631324
 20
3.715193
 30
0.0
 10
28.631324
 20
2.127691
 30
0.0
 10
22.405838
 20
2.127691
 30
0.0
 10
22.405838
 20
3.715193
 30
0.0
 10
16.180346
 20
3.715193
 30
0.0
 10
16.180346
 20
2.127691
 30
0.0
 10
9.954853
 20
2.127691
 30
0.0
 10
9.954853
 20
3.715193
 30
0.0
 10
3.729367
 20
3.715193
 30
0.0
 10
3.729367
 20
-2.298068
 30
0.0
 10
5.316862
 20
-2.298068
 30
0.0
 10
5.316862
 20
-8.311323
 30
0.0
 10
3.729367
 20
-8.311323
 30
0.0
 10
3.729367
 20
-14.324581
 30
0.0
 10
5.316862
 20
-14.324581
 30
0.0
 10
5.316862
 20
-20.337838
 30
0.0
 10
3.729367
 20
-20.337838
 30
0.0
 10
3.729367
 20
-26.351095
 30
0.0
 10
5.316862
 20
-26.351095
 30
0.0
 10
5.316862
 20
-32.364353
 30
0.0
 10
3.729367
 20
-32.364353
 30
0.0
 10
3.729367
 20
-38.377610
 30
0.0
 10
5.316862
 20
-38.377610
 30
0.0
 10
5.316862
 20
-44.390868
 30
0.0
 10
3.729367
 20
-44.390868
 30
0.0
 10
3.729367
 20
-50.404126
 30
0.0
 10
5.316862
 20
-50.404126
 30
0.0
 10
5.316862
 20
-56.417383
 30
0.0
 10
3.729367
 20
-56.417383
 30
0.0
 10
3.729367
 20
-60.843140
 30
0.0
 10
9.954853
 20
-60.843140
 30
0.0
 10
9.954853
 20
-62.430641
 30
0.0
 10
16.180346
 20
-62.430641
 30
0.0
 10
16.180346
 20
-60.843140
 30
0.0
 10
22.405838
 20
-60.843140
 30
0.0
 10
22.405838
 20
-62.430641
 30
0.0
 10
28.631324
 20
-62.430641
 30
0.0
 10
28.631324
 20
-60.843140
 30
0.0
 10
34.856817
 20
-60.843140
 30
0.0
 10
34.856817
 20
-62.430641
 30
0.0
 10
41.082306
 20
-62.430641
 30
0.0
 10
41.082306
 20
-60.843140
 30
0.0
 10
47.307796
 20
-60.843140
 30
0.0
 10
47.307796
 20
-62.430641
 30
0.0
 10
53.533286
 20
-62.430641
 30
0.0
 10
53.533286
 20
-60.843140
 30
0.0
 10
59.758776
 20
-60.843140
 30
0.0
 10
59.758776
 20
-62.430641
 30
0.0
 10
65.984266
 20
-62.430641
 30
0.0
 10
65.984266
 20
-60.843140
 30
0.0
 10
72.209756
 20
-60.843140
 30
0.0
 10
72.209756
 20
-62.430641
 30
0.0
 10
78.435247
 20
-62.430641
 30
0.0
 10
78.435247
 20
-60.843140
 30
0.0
 10
84.660737
 20
-60.843140
 30
0.0
 10
84.660737
 20
-62.430641
 30
0.0
 10
90.886227
 20
-62.430641
 30
0.0
 10
90.886227
 20
-60.843140
 30
0.0
 10
97.111717
 20
-60.843140
 30
0.0
 10
97.111717
 20
-62.430641
 30
0.0
 10
103.337207
 20
-62.430641
 30
0.0
 10
103.337207
 20
-60.843140
 30
0.0
 10
109.562697
 20
-60.843140
 30
0.0
 10
109.562697
 20
-56.417383
 30
0.0
 10
107.975197
 20
-56.417383
 30
0.0
 10
107.975197
 20
-50.404126
 30
0.0
 10
109.562697
 20
-50.404126
 30
0.0
 10
109.562697
 20
-44.390868
 30
0.0
 10
107.975197
 20
-44.390868
 30
0.0
 10
107.975197
 20
-38.377610
 30
0.0
 10
109.562697
 20
-38.377610
 30
0.0
 10
109.562697
 20
-32.364353
 30
0.0
 10
107.975197
 20
-32.364353
 30
0.0
 10
107.975197
 20
-26.351095
 30
0.0
 10
109.562697
 20
-26.351095
 30
0.0
 10
109.562697
 20
-20.337838
 30
0.0
 10
107.975197
 20
-20.337838
 30
0.0
 10
107.975197
 20
-14.324581
 30
0.0
 10
109.562697
 20
-14.324581
 30
0.0
 10
109.562697
 20
-8.311323
 30
0.0
 10
107.975197
 20
-8.311323
 30
0.0
 10
107.975197
 20
-2.298068
 30
0.0
  0
LWPOLYLINE
  5
122
100
AcDbEntity
  8
Layer_1
 62
7
100
AcDbPolyline
 90
68
 70
1
 10
2.141868
 20
49.415955
 30
0.0
 10
2.141868
 20
43.402694
 30
0.0
 10
-1.940275
 20
43.402694
 30
0.0
 10
-1.940275
 20
44.990197
 30
0.0
 10
-7.609917
 20
44.990197
 30
0.0
 10
-7.609917
 20
43.402694
 30
0.0
 10
-13.279560
 20
43.402694
 30
0.0
 10
-13.279560
 20
44.990197
 30
0.0
 10
-18.949203
 20
44.990197
 30
0.0
 10
-18.949203
 20
43.402694
 30
0.0
 10
-24.618846
 20
43.402694
 30
0.0
 10
-24.618846
 20
44.990197
 30
0.0
 10
-30.288489
 20
44.990197
 30
0.0
 10
-30.288489
 20
43.402694
 30
0.0
 10
-34.370632
 20
43.402694
 30
0.0
 10
-34.370632
 20
49.415955
 30
0.0
 10
-35.958131
 20
49.415955
 30
0.0
 10
-35.958131
 20
55.429210
 30
0.0
 10
-34.370632
 20
55.429210
 30
0.0
 10
-34.370632
 20
61.442468
 30
0.0
 10
-35.958131
 20
61.442468
 30
0.0
 10
-35.958131
 20
67.455726
 30
0.0
 10
-34.370632
 20
67.455726
 30
0.0
 10
-34.370632
 20
73.468983
 30
0.0
 10
-35.958131
 20
73.468983
 30
0.0
 10
-35.958131
 20
79.482241
 30
0.0
 10
-34.370632
 20
79.482241
 30
0.0
 10
-34.370632
 20
85.495498
 30
0.0
 10
-35.958131
 20
85.495498
 30
0.0
 10
-35.958131
 20
91.508755
 30
0.0
 10
-34.370632
 20
91.508755
 30
0.0
 10
-34.370632
 20
97.522013
 30
0.0
 10
-35.958131
 20
97.522013
 30
0.0
 10
-35.958131
 20
103.535270
 30
0.0
 10
-34.370632
 20
103.535270
 30
0.0
 10
-34.370632
 20
107.961028
 30
0.0
 10
-30.288489
 20
107.961028
 30
0.0
 10
-30.288489
 20
109.548528
 30
0.0
 10
-24.618846
 20
109.548528
 30
0.0
 10
-24.618846
 20
107.961028
 30
0.0
 10
-18.949203
 20
107.961028
 30
0.0
 10
-18.949203
 20
109.548528
 30
0.0
 10
-13.279560
 20
109.548528
 30
0.0
 10
-13.279560
 20
107.961028
 30
0.0
 10
-7.609917
 20
107.961028
 30
0.0
 10
-7.609917
 20
109.548528
 30
0.0
 10
-1.940275
 20
109.548528
 30
0.0
 10
-1.940275
 20
107.961028
 30
0.0
 10
2.141868
 20
107.961028
 30
0.0
 10
2.141868
 20
103.535270
 30
0.0
 10
3.729368
 20
103.535270
 30
0.0
 10
3.729368
 20
97.522013
 30
0.0
 10
2.141868
 20
97.522013
 30
0.0
 10
2.141868
 20
91.508755
 30
0.0
 10
3.729368
 20
91.508755
 30
0.0
 10
3.729368
 20
85.495498
 30
0.0
 10
2.141868
 20
85.495498
 30
0.0
 10
2.141868
 20
79.482241
 30
0.0
 10
3.729368
 20
79.482241
 30
0.0
 10
3.729368
 20
73.468983
 30
0.0
 10
2.141868
 20
73.468983
 30
0.0
 10
2.141868
 20
67.455726
 30
0.0
 10
3.729368
 20
67.455726
 30
0.0
 10
3.729368
 20
61.442468
 30
0.0
 10
2.141868
 20
61.442468
 30
0.0
 10
2.141868
 20
55.429210
 30
0.0
 10
3.729368
 20
55.429210
 30
0.0
 10
3.729368
 20
49.415955
 30
0.0
  0
LWPOLYLINE
  5
123
100
AcDbEntity
  8
Layer_1
 62
7
100
AcDbPolyline
 90
68
 70
1
 10
2.141867
 20
-56.417386
 30
0.0
 10
2.141867
 20
-62.430647
 30
0.0
 10
-1.940276
 20
-62.430647
 30
0.0
 10
-1.940276
 20
-60.843145
 30
0.0
 10
-7.609919
 20
-60.843145
 30
0.0
 10
-7.609919
 20
-62.430647
 30
0.0
 10
-13.279562
 20
-62.430647
 30
0.0
 10
-13.279562
 20
-60.843145
 30
0.0
 10
-18.949204
 20
-60.843145
 30
0.0
 10
-18.949204
 20
-62.430647
 30
0.0
 10
-24.618847
 20
-62.430647
 30
0.0
 10
-24.618847
 20
-60.843145
 30
0.0
 10
-30.288490
 20
-60.843145
 30
0.0
 10
-30.288490
 20
-62.430647
 30
0.0
 10
-34.370633
 20
-62.430647
 30
0.0
 10
-34.370633
 20
-56.417386
 30
0.0
 10
-35.958133
 20
-56.417386
 30
0.0
 10
-35.958133
 20
-50.404131
 30
0.0
 10
-34.370633
 20
-50.404131
 30
0.0
 10
-34.370633
 20
-44.390873
 30
0.0
 10
-35.958133
 20
-44.390873
 30
0.0
 10
-35.958133
 20
-38.377616
 30
0.0
 10
-34.370633
 20
-38.377616
 30
0.0
 10
-34.370633
 20
-32.364359
 30
0.0
 10
-35.958133
 20
-32.364359
 30
0.0
 10
-35.958133
 20
-26.351101
 30
0.0
 10
-34.370633
 20
-26.351101
 30
0.0
 10
-34.370633
 20
-20.337844
 30
0.0
 10
-35.958133
 20
-20.337844
 30
0.0
 10
-35.958133
 20
-14.324586
 30
0.0
 10
-34.370633
 20
-14.324586
 30
0.0
 10
-34.370633
 20
-8.311328
 30
0.0
 10
-35.958133
 20
-8.311328
 30
0.0
 10
-35.958133
 20
-2.298071
 30
0.0
 10
-34.370633
 20
-2.298071
 30
0.0
 10
-34.370633
 20
2.127687
 30
0.0
 10
-30.288490
 20
2.127687
 30
0.0
 10
-30.288490
 20
3.715187
 30
0.0
 10
-24.618847
 20
3.715187
 30
0.0
 10
-24.618847
 20
2.127687
 30
0.0
 10
-18.949204
 20
2.127687
 30
0.0
 10
-18.949204
 20
3.715187
 30
0.0
 10
-13.279562
 20
3.715187
 30
0.0
 10
-13.279562
 20
2.127687
 30
0.0
 10
-7.609919
 20
2.127687
 30
0.0
 10
-7.609919
 20
3.715187
 30
0.0
 10
-1.940276
 20
3.715187
 30
0.0
 10
-1.940276
 20
2.127687
 30
0.0
 10
2.141867
 20
2.127687
 30
0.0
 10
2.141867
 20
-2.298071
 30
0.0
 10
3.729367
 20
-2.298071
 30
0.0
 10
3.729367
 20
-8.311328
 30
0.0
 10
2.141867
 20
-8.311328
 30
0.0
 10
2.141867
 20
-14.324586
 30
0.0
 10
3.729367
 20
-14.324586
 30
0.0
 10
3.729367
 20
-20.337844
 30
0.0
 10
2.141867
 20
-20.337844
 30
0.0
 10
2.141867
 20
-26.351101
 30
0.0
 10
3.729367
 20
-26.351101
 30
0.0
 10
3.729367
 20
-32.364359
 30
0.0
 10
2.141867
 20
-32.364359
 30
0.0
 10
2.141867
 20
-38.377616
 30
0.0
 10
3.729367
 20
-38.377616
 30
0.0
 10
3.729367
 20
-44.390873
 30
0.0
 10
2.141867
 20
-44.390873
 30
0.0
 10
2.141867
 20
-50.404131
 30
0.0
 10
3.729367
 20
-50.404131
 30
0.0
 10
3.729367
 20
-56.417386
 30
0.0
  0
SPLINE
  5
124
100
AcDbEntity
  8
Layer_1
 62
7
100
AcDbSpline
 70
8
 71
3
 72
8
 73
4
 74
0
 40
0
 40
0
 40
0
 40
0
 40
1
 40
1
 40
1
 40
1
 10
11.112355
 20
137.402633
 30
0.0
 10
11.112355
 20
137.629257
 30
0.0
 10
11.252785
 20
137.782760
 30
0.0
 10
11.443572
 20
137.833605
 30
0.0
  0
LWPOLYLINE
  5
125
100
AcDbEntity
  8
Layer_1
 62
7
100
AcDbPolyline
 90
92
 70
1
 10
5.316868
 20
37.733050
 30
0.0
 10
5.316868
 20
41.815192
 30
0.0
 10
9.954858
 20
41.815192
 30
0.0
 10
9.954858
 20
43.402694
 30
0.0
 10
16.180348
 20
43.402694
 30
0.0
 10
16.180348
 20
41.815192
 30
0.0
 10
22.405838
 20
41.815192
 30
0.0
 10
22.405838
 20
43.402694
 30
0.0
 10
28.631329
 20
43.402694
 30
0.0
 10
28.631329
 20
41.815192
 30
0.0
 10
34.856819
 20
41.815192
 30
0.0
 10
34.856819
 20
43.402694
 30
0.0
 10
41.082309
 20
43.402694
 30
0.0
 10
41.082309
 20
41.815192
 30
0.0
 10
47.307799
 20
41.815192
 30
0.0
 10
47.307799
 20
43.402694
 30
0.0
 10
53.533289
 20
43.402694
 30
0.0
 10
53.533289
 20
41.815192
 30
0.0
 10
59.758779
 20
41.815192
 30
0.0
 10
59.758779
 20
43.402694
 30
0.0
 10
65.984269
 20
43.402694
 30
0.0
 10
65.984269
 20
41.815192
 30
0.0
 10
72.209759
 20
41.815192
 30
0.0
 10
72.209759
 20
43.402694
 30
0.0
 10
78.435248
 20
43.402694
 30
0.0
 10
78.435248
 20
41.815192
 30
0.0
 10
84.660741
 20
41.815192
 30
0.0
 10
84.660741
 20
43.402694
 30
0.0
 10
90.886227
 20
43.402694
 30
0.0
 10
90.886227
 20
41.815192
 30
0.0
 10
97.111720
 20
41.815192
 30
0.0
 10
97.111720
 20
43.402694
 30
0.0
 10
103.337213
 20
43.402694
 30
0.0
 10
103.337213
 20
41.815192
 30
0.0
 10
107.975203
 20
41.815192
 30
0.0
 10
107.975203
 20
37.733050
 30
0.0
 10
109.562698
 20
37.733050
 30
0.0
 10
109.562698
 20
32.063413
 30
0.0
 10
107.975203
 20
32.063413
 30
0.0
 10
107.975203
 20
26.393768
 30
0.0
 10
109.562698
 20
26.393768
 30
0.0
 10
109.562698
 20
20.724124
 30
0.0
 10
107.975203
 20
20.724124
 30
0.0
 10
107.975203
 20
15.054479
 30
0.0
 10
109.562698
 20
15.054479
 30
0.0
 10
109.562698
 20
9.384842
 30
0.0
 10
107.975203
 20
9.384842
 30
0.0
 10
107.975203
 20
5.302693
 30
0.0
 10
103.337213
 20
5.302693
 30
0.0
 10
103.337213
 20
3.715197
 30
0.0
 10
97.111720
 20
3.715197
 30
0.0
 10
97.111720
 20
5.302693
 30
0.0
 10
90.886227
 20
5.302693
 30
0.0
 10
90.886227
 20
3.715197
 30
0.0
 10
84.660741
 20
3.715197
 30
0.0
 10
84.660741
 20
5.302693
 30
0.0
 10
78.435248
 20
5.302693
 30
0.0
 10
78.435248
 20
3.715197
 30
0.0
 10
72.209759
 20
3.715197
 30
0.0
 10
72.209759
 20
5.302693
 30
0.0
 10
65.984269
 20
5.302693
 30
0.0
 10
65.984269
 20
3.715197
 30
0.0
 10
59.758779
 20
3.715197
 30
0.0
 10
59.758779
 20
5.302693
 30
0.0
 10
53.533289
 20
5.302693
 30
0.0
 10
53.533289
 20
3.715197
 30
0.0
 10
47.307799
 20
3.715197
 30
0.0
 10
47.307799
 20
5.302693
 30
0.0
 10
41.082309
 20
5.302693
 30
0.0
 10
41.082309
 20
3.715197
 30
0.0
 10
34.856819
 20
3.715197
 30
0.0
 10
34.856819
 20
5.302693
 30
0.0
 10
28.631329
 20
5.302693
 30
0.0
 10
28.631329
 20
3.715197
 30
0.0
 10
22.405838
 20
3.715197
 30
0.0
 10
22.405838
 20
5.302693
 30
0.0
 10
16.180348
 20
5.302693
 30
0.0
 10
16.180348
 20
3.715197
 30
0.0
 10
9.954858
 20
3.715197
 30
0.0
 10
9.954858
 20
5.302693
 30
0.0
 10
5.316868
 20
5.302693
 30
0.0
 10
5.316868
 20
9.384842
 30
0.0
 10
3.729368
 20
9.384842
 30
0.0
 10
3.729368
 20
15.054479
 30
0.0
 10
5.316868
 20
15.054479
 30
0.0
 10
5.316868
 20
20.724124
 30
0.0
 10
3.729368
 20
20.724124
 30
0.0
 10
3.729368
 20
26.393768
 30
0.0
 10
5.316868
 20
26.393768
 30
0.0
 10
5.316868
 20
32.063413
 30
0.0
 10
3.729368
 20
32.063413
 30
0.0
 10
3.729368
 20
37.733050
 30
0.0
  0
SPLINE
  5
126
100
AcDbEntity
  8
Layer_1
 62
7
100
AcDbSpline
 70
8
 71
3
 72
8
 73
4
 74
0
 40
0
 40
0
 40
0
 40
0
 40
1
 40
1
 40
1
 40
1
 10
11.443572
 20
137.918851
 30
0.0
 10
11.443572
 20
137.930473
 30
0.0
 10
11.440665
 20
137.941125
 30
0.0
 10
11.435342
 20
137.950326
 30
0.0
  0
SPLINE
  5
127
100
AcDbEntity
  8
Layer_1
 62
7
100
AcDbSpline
 70
8
 71
3
 72
8
 73
4
 74
0
 40
0
 40
0
 40
0
 40
0
 40
1
 40
1
 40
1
 40
1
 10
11.435342
 20
137.950326
 30
0.0
 10
11.427589
 20
137.963885
 30
0.0
 10
11.415004
 20
137.976959
 30
0.0
 10
11.397572
 20
137.990034
 30
0.0
  0
LWPOLYLINE
  5
128
100
AcDbEntity
  8
Layer_1
 62
7
100
AcDbPolyline
 90
3
 70
0
 10
11.443572
 20
137.833605
 30
0.0
 10
11.443572
 20
137.918347
 30
0.0
 10
11.443572
 20
137.918851
 30
0.0
  0
SPLINE
  5
129
100
AcDbEntity
  8
Layer_1
 62
7
100
AcDbSpline
 70
8
 71
3
 72
8
 73
4
 74
0
 40
0
 40
0
 40
0
 40
0
 40
1
 40
1
 40
1
 40
1
 10
10.766607
 20
138.451030
 30
0.0
 10
10.720123
 20
138.484926
 30
0.0
 10
10.684769
 20
138.523665
 30
0.0
 10
10.660074
 20
138.566763
 30
0.0
  0
SPLINE
  5
12a
100
AcDbEntity
  8
Layer_1
 62
7
100
AcDbSpline
 70
8
 71
3
 72
8
 73
4
 74
0
 40
0
 40
0
 40
0
 40
0
 40
1
 40
1
 40
1
 40
1
 10
10.660074
 20
138.566763
 30
0.0
 10
10.633439
 20
138.614219
 30
0.0
 10
10.619880
 20
138.665064
 30
0.0
 10
10.619880
 20
138.718814
 30
0.0
  0
LWPOLYLINE
  5
12b
100
AcDbEntity
  8
Layer_1
 62
7
100
AcDbPolyline
 90
2
 70
0
 10
11.397572
 20
137.990034
 30
0.0
 10
10.766607
 20
138.451030
 30
0.0
  0
SPLINE
  5
12c
100
AcDbEntity
  8
Layer_1
 62
7
100
AcDbSpline
 70
8
 71
3
 72
8
 73
4
 74
0
 40
0
 40
0
 40
0
 40
0
 40
1
 40
1
 40
1
 40
1
 10
10.619880
 20
138.808397
 30
0.0
 10
10.454755
 20
138.860211
 30
0.0
 10
10.334664
 20
139.014683
 30
0.0
 10
10.334664
 20
139.196757
 30
0.0
  0
SPLINE
  5
12d
100
AcDbEntity
  8
Layer_1
 62
7
100
AcDbSpline
 70
8
 71
3
 72
8
 73
4
 74
0
 40
0
 40
0
 40
0
 40
0
 40
1
 40
1
 40
1
 40
1
 10
10.334664
 20
139.196757
 30
0.0
 10
10.334664
 20
139.421444
 30
0.0
 10
10.516745
 20
139.603518
 30
0.0
 10
10.741428
 20
139.603518
 30
0.0
  0
SPLINE
  5
12e
100
AcDbEntity
  8
Layer_1
 62
7
100
AcDbSpline
 70
8
 71
3
 72
8
 73
4
 74
0
 40
0
 40
0
 40
0
 40
0
 40
1
 40
1
 40
1
 40
1
 10
10.741428
 20
139.603518
 30
0.0
 10
10.966112
 20
139.603518
 30
0.0
 10
11.148669
 20
139.421444
 30
0.0
 10
11.148669
 20
139.196757
 30
0.0
  0
SPLINE
  5
12f
100
AcDbEntity
  8
Layer_1
 62
7
100
AcDbSpline
 70
8
 71
3
 72
8
 73
4
 74
0
 40
0
 40
0
 40
0
 40
0
 40
1
 40
1
 40
1
 40
1
 10
11.148669
 20
139.196757
 30
0.0
 10
11.148669
 20
139.014683
 30
0.0
 10
11.029061
 20
138.860211
 30
0.0
 10
10.863936
 20
138.808397
 30
0.0
  0
LWPOLYLINE
  5
130
100
AcDbEntity
  8
Layer_1
 62
7
100
AcDbPolyline
 90
2
 70
0
 10
10.619880
 20
138.718814
 30
0.0
 10
10.619880
 20
138.808397
 30
0.0
  0
SPLINE
  5
131
100
AcDbEntity
  8
Layer_1
 62
7
100
AcDbSpline
 70
8
 71
3
 72
8
 73
4
 74
0
 40
0
 40
0
 40
0
 40
0
 40
1
 40
1
 40
1
 40
1
 10
10.863936
 20
138.718814
 30
0.0
 10
10.863936
 20
138.706707
 30
0.0
 10
10.866359
 20
138.696054
 30
0.0
 10
10.871689
 20
138.686854
 30
0.0
  0
SPLINE
  5
132
100
AcDbEntity
  8
Layer_1
 62
7
100
AcDbSpline
 70
8
 71
3
 72
8
 73
4
 74
0
 40
0
 40
0
 40
0
 40
0
 40
1
 40
1
 40
1
 40
1
 10
10.871689
 20
138.686854
 30
0.0
 10
10.879435
 20
138.673294
 30
0.0
 10
10.892028
 20
138.660221
 30
0.0
 10
10.909460
 20
138.647147
 30
0.0
  0
LWPOLYLINE
  5
133
100
AcDbEntity
  8
Layer_1
 62
7
100
AcDbPolyline
 90
2
 70
0
 10
10.863936
 20
138.808397
 30
0.0
 10
10.863936
 20
138.718814
 30
0.0
  0
SPLINE
  5
134
100
AcDbEntity
  8
Layer_1
 62
7
100
AcDbSpline
 70
8
 71
3
 72
8
 73
4
 74
0
 40
0
 40
0
 40
0
 40
0
 40
1
 40
1
 40
1
 40
1
 10
12.221746
 20
139.057781
 30
0.0
 10
12.239178
 20
139.070372
 30
0.0
 10
12.252247
 20
139.083446
 30
0.0
 10
12.259517
 20
139.097004
 30
0.0
  0
SPLINE
  5
135
100
AcDbEntity
  8
Layer_1
 62
7
100
AcDbSpline
 70
8
 71
3
 72
8
 73
4
 74
0
 40
0
 40
0
 40
0
 40
0
 40
1
 40
1
 40
1
 40
1
 10
12.259517
 20
139.097004
 30
0.0
 10
12.264847
 20
139.106201
 30
0.0
 10
12.267270
 20
139.117343
 30
0.0
 10
12.267270
 20
139.128963
 30
0.0
  0
LWPOLYLINE
  5
136
100
AcDbEntity
  8
Layer_1
 62
7
100
AcDbPolyline
 90
10
 70
0
 10
10.909460
 20
138.647147
 30
0.0
 10
11.443572
 20
138.257333
 30
0.0
 10
11.443572
 20
138.329486
 30
0.0
 10
11.443572
 20
140.160393
 30
0.0
 10
11.086687
 20
140.160393
 30
0.0
 10
11.566086
 20
140.966650
 30
0.0
 10
12.045486
 20
140.160393
 30
0.0
 10
11.687628
 20
140.160393
 30
0.0
 10
11.687628
 20
138.667969
 30
0.0
 10
12.221746
 20
139.057781
 30
0.0
  0
SPLINE
  5
137
100
AcDbEntity
  8
Layer_1
 62
7
100
AcDbSpline
 70
8
 71
3
 72
8
 73
4
 74
0
 40
0
 40
0
 40
0
 40
0
 40
1
 40
1
 40
1
 40
1
 10
12.510836
 20
139.128963
 30
0.0
 10
12.510836
 20
139.074729
 30
0.0
 10
12.497284
 20
139.024368
 30
0.0
 10
12.470642
 20
138.976913
 30
0.0
  0
SPLINE
  5
138
100
AcDbEntity
  8
Layer_1
 62
7
100
AcDbSpline
 70
8
 71
3
 72
8
 73
4
 74
0
 40
0
 40
0
 40
0
 40
0
 40
1
 40
1
 40
1
 40
1
 10
12.470642
 20
138.976913
 30
0.0
 10
12.445947
 20
138.933816
 30
0.0
 10
12.410607
 20
138.895076
 30
0.0
 10
12.364116
 20
138.861664
 30
0.0
  0
LWPOLYLINE
  5
139
100
AcDbEntity
  8
Layer_1
 62
7
100
AcDbPolyline
 90
8
 70
0
 10
12.267270
 20
139.128963
 30
0.0
 10
12.267270
 20
139.194820
 30
0.0
 10
11.987376
 20
139.194820
 30
0.0
 10
11.987376
 20
139.924568
 30
0.0
 10
12.750052
 20
139.924568
 30
0.0
 10
12.750052
 20
139.194820
 30
0.0
 10
12.510836
 20
139.194820
 30
0.0
 10
12.510836
 20
139.128963
 30
0.0
  0
SPLINE
  5
13a
100
AcDbEntity
  8
Layer_1
 62
7
100
AcDbSpline
 70
8
 71
3
 72
8
 73
4
 74
0
 40
0
 40
0
 40
0
 40
0
 40
1
 40
1
 40
1
 40
1
 10
11.732668
 20
138.400669
 30
0.0
 10
11.715236
 20
138.387594
 30
0.0
 10
11.702643
 20
138.374519
 30
0.0
 10
11.694897
 20
138.360960
 30
0.0
  0
SPLINE
  5
13b
100
AcDbEntity
  8
Layer_1
 62
7
100
AcDbSpline
 70
8
 71
3
 72
8
 73
4
 74
0
 40
0
 40
0
 40
0
 40
0
 40
1
 40
1
 40
1
 40
1
 10
11.694897
 20
138.360960
 30
0.0
 10
11.689568
 20
138.351762
 30
0.0
 10
11.687151
 20
138.341591
 30
0.0
 10
11.686661
 20
138.329970
 30
0.0
  0
LWPOLYLINE
  5
13c
100
AcDbEntity
  8
Layer_1
 62
7
100
AcDbPolyline
 90
2
 70
0
 10
12.364116
 20
138.861664
 30
0.0
 10
11.732668
 20
138.400669
 30
0.0
  0
SPLINE
  5
13d
100
AcDbEntity
  8
Layer_1
 62
7
100
AcDbSpline
 70
8
 71
3
 72
8
 73
4
 74
0
 40
0
 40
0
 40
0
 40
0
 40
1
 40
1
 40
1
 40
1
 10
11.686661
 20
137.829248
 30
0.0
 10
11.870184
 20
137.774044
 30
0.0
 10
12.003835
 20
137.626351
 30
0.0
 10
12.003835
 20
137.402148
 30
0.0
  0
SPLINE
  5
13e
100
AcDbEntity
  8
Layer_1
 62
7
100
AcDbSpline
 70
8
 71
3
 72
8
 73
4
 74
0
 40
0
 40
0
 40
0
 40
0
 40
1
 40
1
 40
1
 40
1
 10
12.003835
 20
137.402148
 30
0.0
 10
12.003835
 20
137.177946
 30
0.0
 10
11.803846
 20
136.956163
 30
0.0
 10
11.557850
 20
136.956163
 30
0.0
  0
SPLINE
  5
13f
100
AcDbEntity
  8
Layer_1
 62
7
100
AcDbSpline
 70
8
 71
3
 72
8
 73
4
 74
0
 40
0
 40
0
 40
0
 40
0
 40
1
 40
1
 40
1
 40
1
 10
11.557850
 20
136.956163
 30
0.0
 10
11.311861
 20
136.956667
 30
0.0
 10
11.112355
 20
137.176009
 30
0.0
 10
11.112355
 20
137.402633
 30
0.0
  0
LWPOLYLINE
  5
140
100
AcDbEntity
  8
Layer_1
 62
7
100
AcDbPolyline
 90
5
 70
0
 10
11.686661
 20
138.329970
 30
0.0
 10
11.686661
 20
138.329466
 30
0.0
 10
11.686661
 20
138.022942
 30
0.0
 10
11.686661
 20
137.918347
 30
0.0
 10
11.686661
 20
137.829248
 30
0.0
  0
SPLINE
  5
141
100
AcDbEntity
  8
Layer_1
 62
7
100
AcDbSpline
 70
8
 71
3
 72
8
 73
4
 74
0
 40
0
 40
0
 40
0
 40
0
 40
1
 40
1
 40
1
 40
1
 10
25.767709
 20
136.964034
 30
0.0
 10
25.779515
 20
136.960098
 30
0.0
 10
25.795258
 20
136.956163
 30
0.0
 10
25.807064
 20
136.956163
 30
0.0
  0
SPLINE
  5
142
100
AcDbEntity
  8
Layer_1
 62
7
100
AcDbSpline
 70
8
 71
3
 72
8
 73
4
 74
0
 40
0
 40
0
 40
0
 40
0
 40
1
 40
1
 40
1
 40
1
 10
25.807064
 20
136.956163
 30
0.0
 10
25.846420
 20
136.956163
 30
0.0
 10
25.885775
 20
136.975841
 30
0.0
 10
25.909388
 20
137.015196
 30
0.0
  0
LWPOLYLINE
  5
143
100
AcDbEntity
  8
Layer_1
 62
7
100
AcDbPolyline
 90
1
 70
1
 10
11.112355
 20
137.402633
 30
0.0
  0
SPLINE
  5
144
100
AcDbEntity
  8
Layer_1
 62
7
100
AcDbSpline
 70
8
 71
3
 72
8
 73
4
 74
0
 40
0
 40
0
 40
0
 40
0
 40
1
 40
1
 40
1
 40
1
 10
27.208118
 20
139.179746
 30
0.0
 10
27.231731
 20
139.215166
 30
0.0
 10
27.231731
 20
139.262392
 30
0.0
 10
27.208118
 20
139.297812
 30
0.0
  0
SPLINE
  5
145
100
AcDbEntity
  8
Layer_1
 62
7
100
AcDbSpline
 70
8
 71
3
 72
8
 73
4
 74
0
 40
0
 40
0
 40
0
 40
0
 40
1
 40
1
 40
1
 40
1
 10
27.208118
 20
139.297812
 30
0.0
 10
27.188440
 20
139.333232
 30
0.0
 10
27.149085
 20
139.356845
 30
0.0
 10
27.105794
 20
139.356845
 30
0.0
  0
LWPOLYLINE
  5
146
100
AcDbEntity
  8
Layer_1
 62
7
100
AcDbPolyline
 90
2
 70
0
 10
25.909388
 20
137.015196
 30
0.0
 10
27.208118
 20
139.179746
 30
0.0
  0
SPLINE
  5
147
100
AcDbEntity
  8
Layer_1
 62
7
100
AcDbSpline
 70
8
 71
3
 72
8
 73
4
 74
0
 40
0
 40
0
 40
0
 40
0
 40
1
 40
1
 40
1
 40
1
 10
26.826370
 20
140.120341
 30
0.0
 10
26.834241
 20
140.155761
 30
0.0
 10
26.826370
 20
140.191181
 30
0.0
 10
26.802757
 20
140.218729
 30
0.0
  0
SPLINE
  5
148
100
AcDbEntity
  8
Layer_1
 62
7
100
AcDbSpline
 70
8
 71
3
 72
8
 73
4
 74
0
 40
0
 40
0
 40
0
 40
0
 40
1
 40
1
 40
1
 40
1
 10
26.802757
 20
140.218729
 30
0.0
 10
26.783079
 20
140.246278
 30
0.0
 10
26.747659
 20
140.262020
 30
0.0
 10
26.712240
 20
140.262020
 30
0.0
  0
LWPOLYLINE
  5
149
100
AcDbEntity
  8
Layer_1
 62
7
100
AcDbPolyline
 90
3
 70
0
 10
27.105794
 20
139.356845
 30
0.0
 10
26.657142
 20
139.356845
 30
0.0
 10
26.826370
 20
140.120341
 30
0.0
  0
SPLINE
  5
14a
100
AcDbEntity
  8
Layer_1
 62
7
100
AcDbSpline
 70
8
 71
3
 72
8
 73
4
 74
0
 40
0
 40
0
 40
0
 40
0
 40
1
 40
1
 40
1
 40
1
 10
25.610287
 20
140.262020
 30
0.0
 10
25.543383
 20
140.262020
 30
0.0
 10
25.492221
 20
140.210858
 30
0.0
 10
25.492221
 20
140.143954
 30
0.0
  0
LWPOLYLINE
  5
14b
100
AcDbEntity
  8
Layer_1
 62
7
100
AcDbPolyline
 90
2
 70
0
 10
26.712240
 20
140.262020
 30
0.0
 10
25.610287
 20
140.262020
 30
0.0
  0
SPLINE
  5
14c
100
AcDbEntity
  8
Layer_1
 62
7
100
AcDbSpline
 70
8
 71
3
 72
8
 73
4
 74
0
 40
0
 40
0
 40
0
 40
0
 40
1
 40
1
 40
1
 40
1
 10
25.492221
 20
138.530381
 30
0.0
 10
25.492221
 20
138.463476
 30
0.0
 10
25.543383
 20
138.412314
 30
0.0
 10
25.610287
 20
138.412314
 30
0.0
  0
LWPOLYLINE
  5
14d
100
AcDbEntity
  8
Layer_1
 62
7
100
AcDbPolyline
 90
2
 70
0
 10
25.492221
 20
140.143954
 30
0.0
 10
25.492221
 20
138.530381
 30
0.0
  0
SPLINE
  5
14e
100
AcDbEntity
  8
Layer_1
 62
7
100
AcDbSpline
 70
8
 71
3
 72
8
 73
4
 74
0
 40
0
 40
0
 40
0
 40
0
 40
1
 40
1
 40
1
 40
1
 10
25.688998
 20
137.093907
 30
0.0
 10
25.681127
 20
137.038809
 30
0.0
 10
25.712611
 20
136.983712
 30
0.0
 10
25.767709
 20
136.964034
 30
0.0
  0
LWPOLYLINE
  5
14f
100
AcDbEntity
  8
Layer_1
 62
7
100
AcDbPolyline
 90
3
 70
0
 10
25.610287
 20
138.412314
 30
0.0
 10
25.905453
 20
138.412314
 30
0.0
 10
25.688998
 20
137.093907
 30
0.0
  0
LWPOLYLINE
  5
150
100
AcDbEntity
  8
Layer_1
 62
7
100
AcDbPolyline
 90
1
 70
1
 10
25.767709
 20
136.964034
 30
0.0
  0
SPLINE
  5
151
100
AcDbEntity
  8
Layer_1
 62
7
100
AcDbSpline
 70
8
 71
3
 72
8
 73
4
 74
0
 40
0
 40
0
 40
0
 40
0
 40
1
 40
1
 40
1
 40
1
 10
26.401332
 20
139.282070
 30
0.0
 10
26.397396
 20
139.274199
 30
0.0
 10
26.397396
 20
139.262392
 30
0.0
 10
26.397396
 20
139.250585
 30
0.0
  0
SPLINE
  5
152
100
AcDbEntity
  8
Layer_1
 62
7
100
AcDbSpline
 70
8
 71
3
 72
8
 73
4
 74
0
 40
0
 40
0
 40
0
 40
0
 40
1
 40
1
 40
1
 40
1
 10
26.397396
 20
139.250585
 30
0.0
 10
26.397396
 20
139.246650
 30
0.0
 10
26.397396
 20
139.242714
 30
0.0
 10
26.397396
 20
139.238779
 30
0.0
  0
SPLINE
  5
153
100
AcDbEntity
  8
Layer_1
 62
7
100
AcDbSpline
 70
8
 71
3
 72
8
 73
4
 74
0
 40
0
 40
0
 40
0
 40
0
 40
1
 40
1
 40
1
 40
1
 10
26.397396
 20
139.238779
 30
0.0
 10
26.397396
 20
139.171875
 30
0.0
 10
26.448558
 20
139.120712
 30
0.0
 10
26.515462
 20
139.120712
 30
0.0
  0
LWPOLYLINE
  5
154
100
AcDbEntity
  8
Layer_1
 62
7
100
AcDbPolyline
 90
4
 70
0
 10
25.728353
 20
138.648447
 30
0.0
 10
25.728353
 20
140.025888
 30
0.0
 10
26.566624
 20
140.025888
 30
0.0
 10
26.401332
 20
139.282070
 30
0.0
  0
SPLINE
  5
155
100
AcDbEntity
  8
Layer_1
 62
7
100
AcDbSpline
 70
8
 71
3
 72
8
 73
4
 74
0
 40
0
 40
0
 40
0
 40
0
 40
1
 40
1
 40
1
 40
1
 10
26.161263
 20
138.510703
 30
0.0
 10
26.165199
 20
138.546123
 30
0.0
 10
26.157328
 20
138.581543
 30
0.0
 10
26.133715
 20
138.605156
 30
0.0
  0
SPLINE
  5
156
100
AcDbEntity
  8
Layer_1
 62
7
100
AcDbSpline
 70
8
 71
3
 72
8
 73
4
 74
0
 40
0
 40
0
 40
0
 40
0
 40
1
 40
1
 40
1
 40
1
 10
26.133715
 20
138.605156
 30
0.0
 10
26.110101
 20
138.632705
 30
0.0
 10
26.078617
 20
138.648447
 30
0.0
 10
26.043197
 20
138.648447
 30
0.0
  0
LWPOLYLINE
  5
157
100
AcDbEntity
  8
Layer_1
 62
7
100
AcDbPolyline
 90
4
 70
0
 10
26.515462
 20
139.120712
 30
0.0
 10
26.897210
 20
139.120712
 30
0.0
 10
26.023519
 20
137.660625
 30
0.0
 10
26.161263
 20
138.510703
 30
0.0
  0
LWPOLYLINE
  5
158
100
AcDbEntity
  8
Layer_1
 62
7
100
AcDbPolyline
 90
2
 70
0
 10
26.043197
 20
138.648447
 30
0.0
 10
25.728353
 20
138.648447
 30
0.0
  0
SPLINE
  5
159
100
AcDbEntity
  8
Layer_1
 62
7
100
AcDbSpline
 70
8
 71
3
 72
8
 73
4
 74
0
 40
0
 40
0
 40
0
 40
0
 40
1
 40
1
 40
1
 40
1
 10
34.285169
 20
139.991350
 30
0.0
 10
34.285169
 20
140.378958
 30
0.0
 10
33.987484
 20
140.706395
 30
0.0
 10
33.635087
 20
140.706395
 30
0.0
  0
SPLINE
  5
15a
100
AcDbEntity
  8
Layer_1
 62
7
100
AcDbSpline
 70
8
 71
3
 72
8
 73
4
 74
0
 40
0
 40
0
 40
0
 40
0
 40
1
 40
1
 40
1
 40
1
 10
33.635087
 20
140.706395
 30
0.0
 10
33.282732
 20
140.706395
 30
0.0
 10
32.985047
 20
140.378958
 30
0.0
 10
32.985047
 20
139.991350
 30
0.0
  0
LWPOLYLINE
  5
15b
100
AcDbEntity
  8
Layer_1
 62
7
100
AcDbPolyline
 90
2
 70
0
 10
34.285169
 20
138.626267
 30
0.0
 10
34.285169
 20
139.991350
 30
0.0
  0
SPLINE
  5
15c
100
AcDbEntity
  8
Layer_1
 62
7
100
AcDbSpline
 70
8
 71
3
 72
8
 73
4
 74
0
 40
0
 40
0
 40
0
 40
0
 40
1
 40
1
 40
1
 40
1
 10
33.115097
 20
139.991350
 30
0.0
 10
33.115097
 20
140.308454
 30
0.0
 10
33.353237
 20
140.576387
 30
0.0
 10
33.635087
 20
140.576387
 30
0.0
  0
SPLINE
  5
15d
100
AcDbEntity
  8
Layer_1
 62
7
100
AcDbSpline
 70
8
 71
3
 72
8
 73
4
 74
0
 40
0
 40
0
 40
0
 40
0
 40
1
 40
1
 40
1
 40
1
 10
33.635087
 20
140.576387
 30
0.0
 10
33.917022
 20
140.576387
 30
0.0
 10
34.155120
 20
140.308454
 30
0.0
 10
34.155120
 20
139.991350
 30
0.0
  0
LWPOLYLINE
  5
15e
100
AcDbEntity
  8
Layer_1
 62
7
100
AcDbPolyline
 90
15
 70
0
 10
32.985047
 20
139.991350
 30
0.0
 10
32.985047
 20
138.626267
 30
0.0
 10
32.855039
 20
138.626267
 30
0.0
 10
32.855039
 20
138.106234
 30
0.0
 10
33.310067
 20
138.106234
 30
0.0
 10
33.310067
 20
137.412483
 30
0.0
 10
33.440075
 20
137.412483
 30
0.0
 10
33.440075
 20
138.106234
 30
0.0
 10
33.830058
 20
138.106234
 30
0.0
 10
33.830058
 20
136.956163
 30
0.0
 10
33.960066
 20
136.956163
 30
0.0
 10
33.960066
 20
138.106234
 30
0.0
 10
34.415094
 20
138.106234
 30
0.0
 10
34.415094
 20
138.626267
 30
0.0
 10
34.285169
 20
138.626267
 30
0.0
  0
LWPOLYLINE
  5
15f
100
AcDbEntity
  8
Layer_1
 62
7
100
AcDbPolyline
 90
8
 70
0
 10
34.155120
 20
139.991350
 30
0.0
 10
34.155120
 20
138.626267
 30
0.0
 10
33.895103
 20
138.626267
 30
0.0
 10
33.895103
 20
139.323143
 30
0.0
 10
33.375071
 20
139.496487
 30
0.0
 10
33.375071
 20
138.626267
 30
0.0
 10
33.115097
 20
138.626267
 30
0.0
 10
33.115097
 20
139.991350
 30
0.0
  0
LWPOLYLINE
  5
160
100
AcDbEntity
  8
Layer_1
 62
7
100
AcDbPolyline
 90
4
 70
1
 10
33.765095
 20
138.626267
 30
0.0
 10
33.505079
 20
138.626267
 30
0.0
 10
33.505079
 20
139.316143
 30
0.0
 10
33.765095
 20
139.229429
 30
0.0
  0
LWPOLYLINE
  5
161
100
AcDbEntity
  8
Layer_1
 62
7
100
AcDbPolyline
 90
5
 70
1
 10
34.285169
 20
138.236242
 30
0.0
 10
32.985047
 20
138.236242
 30
0.0
 10
32.985047
 20
138.496258
 30
0.0
 10
34.285127
 20
138.496258
 30
0.0
 10
34.285127
 20
138.236242
 30
0.0
  0
LWPOLYLINE
  5
162
100
AcDbEntity
  8
Layer_1
 62
7
100
AcDbPolyline
 90
4
 70
1
 10
-28.801785
 20
146.009050
 30
0.0
 10
-26.155952
 20
146.009050
 30
0.0
 10
-26.155952
 20
143.363217
 30
0.0
 10
-28.801785
 20
143.363217
 30
0.0
  0
ENDSEC
  0
SECTION
  2
OBJECTS
  0
DICTIONARY
  5
C
330
0
100
AcDbDictionary
  3
ACAD_GROUP
350
D
  3
ACAD_MLINESTYLE
350
17
  0
DICTIONARY
  5
D
330
C
100
AcDbDictionary
  0
DICTIONARY
  5
1A
330
C
100
AcDbDictionary
  0
DICTIONARY
  5
17
330
C
100
AcDbDictionary
  3
STANDARD
350
18
  0
DICTIONARY
  5
19
330
C
100
AcDbDictionary
  0
ENDSEC
  0
EOF
