  0
SECTION
  2
HEADER
  9
$ACADVER
  1
AC1014
  9
$HANDSEED
  5
FFFF
  9
$MEASUREMENT
 70
     1
  0
ENDSEC
  0
SECTION
  2
TABLES
  0
TABLE
  2
VPORT
  5
8
330
0
100
AcDbSymbolTable
 70
     4
  0
VPORT
  5
2E
330
8
100
AcDbSymbolTableRecord
100
AcDbViewportTableRecord
  2
*ACTIVE
 70
     0
 10
0.0
 20
0.0
 11
1.0
 21
1.0
 12
210.0
 22
148.5
 13
0.0
 23
0.0
 14
10.0
 24
10.0
 15
10.0
 25
10.0
 16
0.0
 26
0.0
 36
1.0
 17
0.0
 27
0.0
 37
0.0
 40
341.0
 41
1.24
 42
50.0
 43
0.0
 44
0.0
 50
0.0
 51
0.0
 71
     0
 72
   100
 73
     1
 74
     3
 75
     0
 76
     0
 77
     0
 78
     0
  0
ENDTAB
  0
TABLE
  2
LTYPE
  5
5
330
0
100
AcDbSymbolTable
 70
     1
  0
LTYPE
  5
14
330
5
100
AcDbSymbolTableRecord
100
AcDbLinetypeTableRecord
  2
BYBLOCK
 70
     0
  3

 72
    65
 73
     0
 40
0.0
  0
LTYPE
  5
15
330
5
100
AcDbSymbolTableRecord
100
AcDbLinetypeTableRecord
  2
BYLAYER
 70
     0
  3

 72
    65
 73
     0
 40
0.0
  0
LTYPE
  5
16
330
5
100
AcDbSymbolTableRecord
100
AcDbLinetypeTableRecord
  2
CONTINUOUS
 70
     0
  3
Solid line
 72
    65
 73
     0
 40
0.0
  0
ENDTAB
  0
TABLE
  2
LAYER
  5
2
100
AcDbSymbolTable
 70
2
  0
LAYER
  5
50
100
AcDbSymbolTableRecord
100
AcDbLayerTableRecord
  2
0
 70
0
  6
CONTINUOUS
  0
LAYER
  5
51
100
AcDbSymbolTableRecord
100
AcDbLayerTableRecord
  2
Layer_1
 70
0
  6
CONTINUOUS
  0
ENDTAB
  0
TABLE
  2
STYLE
  5
3
330
0
100
AcDbSymbolTable
 70
     1
  0
STYLE
  5
11
330
3
100
AcDbSymbolTableRecord
100
AcDbTextStyleTableRecord
  2
STANDARD
 70
     0
 40
0.0
 41
1.0
 50
0.0
 71
     0
 42
2.5
  3
txt
  4

  0
ENDTAB
  0
TABLE
  2
VIEW
  5
6
330
0
100
AcDbSymbolTable
 70
     0
  0
ENDTAB
  0
TABLE
  2
UCS
  5
7
330
0
100
AcDbSymbolTable
 70
     0
  0
ENDTAB
  0
TABLE
  2
APPID
  5
9
330
0
100
AcDbSymbolTable
 70
     2
  0
APPID
  5
12
330
9
100
AcDbSymbolTableRecord
100
AcDbRegAppTableRecord
  2
ACAD
 70
     0
  0
ENDTAB
  0
TABLE
  2
DIMSTYLE
  5
A
330
0
100
AcDbSymbolTable
 70
     1
  0
DIMSTYLE
105
27
330
A
100
AcDbSymbolTableRecord
100
AcDbDimStyleTableRecord
  2
ISO-25
 70
     0
  3

  4

  5

  6

  7

 40
1.0
 41
2.5
 42
0.625
 43
3.75
 44
1.25
 45
0.0
 46
0.0
 47
0.0
 48
0.0
140
2.5
141
2.5
142
0.0
143
0.03937007874016
144
1.0
145
0.0
146
1.0
147
0.625
 71
     0
 72
     0
 73
     0
 74
     0
 75
     0
 76
     0
 77
     1
 78
     8
170
     0
171
     3
172
     1
173
     0
174
     0
175
     0
176
     0
177
     0
178
     0
270
     2
271
     2
272
     2
273
     2
274
     3
340
11
275
     0
280
     0
281
     0
282
     0
283
     0
284
     8
285
     0
286
     0
287
     3
288
     0
  0
ENDTAB
  0
TABLE
  2
BLOCK_RECORD
  5
1
330
0
100
AcDbSymbolTable
 70
     1
  0
BLOCK_RECORD
  5
1F
330
1
100
AcDbSymbolTableRecord
100
AcDbBlockTableRecord
  2
*MODEL_SPACE
  0
BLOCK_RECORD
  5
1B
330
1
100
AcDbSymbolTableRecord
100
AcDbBlockTableRecord
  2
*PAPER_SPACE
  0
ENDTAB
  0
ENDSEC
  0
SECTION
  2
BLOCKS
  0
BLOCK
  5
20
330
1F
100
AcDbEntity
  8
0
100
AcDbBlockBegin
  2
*MODEL_SPACE
 70
     0
 10
0.0
 20
0.0
 30
0.0
  3
*MODEL_SPACE
  1

  0
ENDBLK
  5
21
330
1F
100
AcDbEntity
  8
0
100
AcDbBlockEnd
  0
BLOCK
  5
1C
330
1B
100
AcDbEntity
 67
     1
  8
0
100
AcDbBlockBegin
  2
*PAPER_SPACE
  1

  0
ENDBLK
  5
1D
330
1B
100
AcDbEntity
 67
     1
  8
0
100
AcDbBlockEnd
  0
ENDSEC
  0
SECTION
  2
ENTITIES
  0
LWPOLYLINE
  5
100
100
AcDbEntity
  8
Layer_1
 62
1
100
AcDbPolyline
 90
93
 70
1
 10
53.302481
 20
219.180253
 30
0.0
 10
53.302481
 20
225.227871
 30
0.0
 10
51.609148
 20
225.227871
 30
0.0
 10
51.609148
 20
231.275492
 30
0.0
 10
58.249671
 20
231.275492
 30
0.0
 10
58.249671
 20
229.582156
 30
0.0
 10
64.890193
 20
229.582156
 30
0.0
 10
64.890193
 20
231.275492
 30
0.0
 10
71.530716
 20
231.275492
 30
0.0
 10
71.530716
 20
229.582156
 30
0.0
 10
78.171239
 20
229.582156
 30
0.0
 10
78.171239
 20
231.275492
 30
0.0
 10
84.811762
 20
231.275492
 30
0.0
 10
84.811762
 20
229.582156
 30
0.0
 10
91.452285
 20
229.582156
 30
0.0
 10
91.452285
 20
231.275492
 30
0.0
 10
98.092807
 20
231.275492
 30
0.0
 10
98.092807
 20
229.582156
 30
0.0
 10
104.733330
 20
229.582156
 30
0.0
 10
104.733330
 20
231.275492
 30
0.0
 10
111.373853
 20
231.275492
 30
0.0
 10
111.373853
 20
229.582156
 30
0.0
 10
118.014376
 20
229.582156
 30
0.0
 10
118.014376
 20
231.275492
 30
0.0
 10
124.654898
 20
231.275492
 30
0.0
 10
124.654898
 20
229.582156
 30
0.0
 10
131.295420
 20
229.582156
 30
0.0
 10
131.295420
 20
231.275492
 30
0.0
 10
137.935945
 20
231.275492
 30
0.0
 10
137.935945
 20
229.582156
 30
0.0
 10
144.576464
 20
229.582156
 30
0.0
 10
144.576464
 20
231.275492
 30
0.0
 10
151.216990
 20
231.275492
 30
0.0
 10
151.216990
 20
229.582156
 30
0.0
 10
157.857515
 20
229.582156
 30
0.0
 10
157.857515
 20
231.275492
 30
0.0
 10
164.498034
 20
231.275492
 30
0.0
 10
164.498034
 20
225.227871
 30
0.0
 10
162.804705
 20
225.227871
 30
0.0
 10
162.804705
 20
219.180253
 30
0.0
 10
164.498034
 20
219.180253
 30
0.0
 10
164.498034
 20
213.132634
 30
0.0
 10
162.804705
 20
213.132634
 30
0.0
 10
162.804705
 20
207.085015
 30
0.0
 10
164.498034
 20
207.085015
 30
0.0
 10
164.498034
 20
201.037396
 30
0.0
 10
162.804705
 20
201.037396
 30
0.0
 10
162.804705
 20
194.989777
 30
0.0
 10
164.498034
 20
194.989777
 30
0.0
 10
164.498034
 20
188.942158
 30
0.0
 10
157.857515
 20
188.942158
 30
0.0
 10
157.857515
 20
190.635491
 30
0.0
 10
151.216990
 20
190.635491
 30
0.0
 10
151.216990
 20
188.942158
 30
0.0
 10
144.576464
 20
188.942158
 30
0.0
 10
144.576464
 20
190.635491
 30
0.0
 10
137.935945
 20
190.635491
 30
0.0
 10
137.935945
 20
188.942158
 30
0.0
 10
131.295420
 20
188.942158
 30
0.0
 10
131.295420
 20
190.635491
 30
0.0
 10
124.654898
 20
190.635491
 30
0.0
 10
124.654898
 20
188.942158
 30
0.0
 10
118.014376
 20
188.942158
 30
0.0
 10
118.014376
 20
190.635491
 30
0.0
 10
111.373853
 20
190.635491
 30
0.0
 10
111.373853
 20
188.942158
 30
0.0
 10
104.733330
 20
188.942158
 30
0.0
 10
104.733330
 20
190.635491
 30
0.0
 10
98.092807
 20
190.635491
 30
0.0
 10
98.092807
 20
188.942158
 30
0.0
 10
91.452285
 20
188.942158
 30
0.0
 10
91.452285
 20
190.635491
 30
0.0
 10
84.811762
 20
190.635491
 30
0.0
 10
84.811762
 20
188.942158
 30
0.0
 10
78.171239
 20
188.942158
 30
0.0
 10
78.171239
 20
190.635491
 30
0.0
 10
71.530716
 20
190.635491
 30
0.0
 10
71.530716
 20
188.942158
 30
0.0
 10
64.890193
 20
188.942158
 30
0.0
 10
64.890193
 20
190.635491
 30
0.0
 10
58.249671
 20
190.635491
 30
0.0
 10
58.249671
 20
188.942158
 30
0.0
 10
51.609148
 20
188.942158
 30
0.0
 10
51.609148
 20
194.989777
 30
0.0
 10
53.302481
 20
194.989777
 30
0.0
 10
53.302481
 20
201.037396
 30
0.0
 10
51.609148
 20
201.037396
 30
0.0
 10
51.609148
 20
207.085015
 30
0.0
 10
53.302481
 20
207.085015
 30
0.0
 10
53.302481
 20
213.132634
 30
0.0
 10
51.609148
 20
213.132634
 30
0.0
 10
51.609148
 20
219.180253
 30
0.0
 10
53.302481
 20
219.180253
 30
0.0
  0
LWPOLYLINE
  5
101
100
AcDbEntity
  8
Layer_1
 62
5
100
AcDbPolyline
 90
5
 70
1
 10
61.636337
 20
223.373268
 30
0.0
 10
58.249671
 20
223.373268
 30
0.0
 10
58.249671
 20
226.759932
 30
0.0
 10
61.636337
 20
226.759932
 30
0.0
 10
61.636337
 20
223.373268
 30
0.0
  0
LWPOLYLINE
  5
102
100
AcDbEntity
  8
Layer_1
 62
5
100
AcDbPolyline
 90
2
 70
1
 10
74.336337
 20
225.066603
 30
0.0
 10
74.336337
 20
225.066603
 30
0.0
  0
LWPOLYLINE
  5
103
100
AcDbEntity
  8
Layer_1
 62
5
100
AcDbPolyline
 90
5
 70
1
 10
85.625226
 20
223.937715
 30
0.0
 10
81.391893
 20
223.937715
 30
0.0
 10
81.391893
 20
226.195492
 30
0.0
 10
85.625226
 20
226.195492
 30
0.0
 10
85.625226
 20
223.937715
 30
0.0
  0
SPLINE
  5
104
100
AcDbEntity
  8
Layer_1
 62
5
100
AcDbSpline
 70
0
 71
3
 72
25
 73
21
 74
19
 40
0.000000
 40
0.000000
 40
0.000000
 40
0.000000
 40
0.492427
 40
0.977807
 40
1.470234
 40
1.962661
 40
2.448041
 40
2.940468
 40
3.432896
 40
3.918275
 40
4.410703
 40
4.903130
 40
5.388509
 40
5.880937
 40
6.373364
 40
6.858744
 40
7.351171
 40
7.843598
 40
8.328978
 40
8.821405
 40
8.821405
 40
8.821405
 40
8.821405
 10
74.336337
 20
225.066603
 30
0.0
 10
74.353197
 20
224.901624
 30
0.0
 10
74.386675
 20
224.574026
 30
0.0
 10
74.646414
 20
224.141100
 30
0.0
 10
75.026715
 20
223.819231
 30
0.0
 10
75.497647
 20
223.648523
 30
0.0
 10
75.997358
 20
223.648523
 30
0.0
 10
76.467630
 20
223.819231
 30
0.0
 10
76.850565
 20
224.141100
 30
0.0
 10
77.100518
 20
224.574026
 30
0.0
 10
77.187789
 20
225.066603
 30
0.0
 10
77.100518
 20
225.559181
 30
0.0
 10
76.850565
 20
225.992107
 30
0.0
 10
76.467630
 20
226.313976
 30
0.0
 10
75.997358
 20
226.484684
 30
0.0
 10
75.497647
 20
226.484684
 30
0.0
 10
75.026715
 20
226.313976
 30
0.0
 10
74.646414
 20
225.992107
 30
0.0
 10
74.386675
 20
225.559181
 30
0.0
 10
74.353197
 20
225.231583
 30
0.0
 10
74.336337
 20
225.066603
 30
0.0
 11
74.336337
 21
225.066603
 31
0.0
 11
74.422237
 21
224.581726
 31
0.0
 11
74.664927
 21
224.161375
 31
0.0
 11
75.041893
 21
223.844545
 31
0.0
 11
75.504758
 21
223.676498
 31
0.0
 11
75.990138
 21
223.676498
 31
0.0
 11
76.453004
 21
223.844545
 31
0.0
 11
76.829970
 21
224.161375
 31
0.0
 11
77.072660
 21
224.581726
 31
0.0
 11
77.158560
 21
225.066603
 31
0.0
 11
77.072660
 21
225.551481
 31
0.0
 11
76.829970
 21
225.971832
 31
0.0
 11
76.453004
 21
226.288662
 31
0.0
 11
75.990138
 21
226.456709
 31
0.0
 11
75.504758
 21
226.456709
 31
0.0
 11
75.041893
 21
226.288662
 31
0.0
 11
74.664927
 21
225.971832
 31
0.0
 11
74.422237
 21
225.551481
 31
0.0
 11
74.336337
 21
225.066603
 31
0.0
  0
LWPOLYLINE
  5
105
100
AcDbEntity
  8
Layer_1
 62
1
100
AcDbPolyline
 90
109
 70
1
 10
51.609148
 20
124.800746
 30
0.0
 10
53.302481
 20
124.800746
 30
0.0
 10
53.302481
 20
131.214885
 30
0.0
 10
51.609148
 20
131.214885
 30
0.0
 10
51.609148
 20
137.629027
 30
0.0
 10
53.302481
 20
137.629027
 30
0.0
 10
53.302481
 20
144.043168
 30
0.0
 10
51.609148
 20
144.043168
 30
0.0
 10
51.609148
 20
150.457309
 30
0.0
 10
53.302481
 20
150.457309
 30
0.0
 10
53.302481
 20
156.871451
 30
0.0
 10
51.609148
 20
156.871451
 30
0.0
 10
51.609148
 20
163.285592
 30
0.0
 10
53.302481
 20
163.285592
 30
0.0
 10
53.302481
 20
169.699733
 30
0.0
 10
51.609148
 20
169.699733
 30
0.0
 10
51.609148
 20
176.113875
 30
0.0
 10
53.302481
 20
176.113875
 30
0.0
 10
53.302481
 20
182.528016
 30
0.0
 10
51.609148
 20
182.528016
 30
0.0
 10
51.609148
 20
187.248824
 30
0.0
 10
58.249671
 20
187.248824
 30
0.0
 10
58.249671
 20
188.942158
 30
0.0
 10
64.890193
 20
188.942158
 30
0.0
 10
64.890193
 20
187.248824
 30
0.0
 10
71.530716
 20
187.248824
 30
0.0
 10
71.530716
 20
188.942158
 30
0.0
 10
78.171239
 20
188.942158
 30
0.0
 10
78.171239
 20
187.248824
 30
0.0
 10
84.811762
 20
187.248824
 30
0.0
 10
84.811762
 20
188.942158
 30
0.0
 10
91.452285
 20
188.942158
 30
0.0
 10
91.452285
 20
187.248824
 30
0.0
 10
98.092807
 20
187.248824
 30
0.0
 10
98.092807
 20
188.942158
 30
0.0
 10
104.733330
 20
188.942158
 30
0.0
 10
104.733330
 20
187.248824
 30
0.0
 10
111.373853
 20
187.248824
 30
0.0
 10
111.373853
 20
188.942158
 30
0.0
 10
118.014376
 20
188.942158
 30
0.0
 10
118.014376
 20
187.248824
 30
0.0
 10
124.654898
 20
187.248824
 30
0.0
 10
124.654898
 20
188.942158
 30
0.0
 10
131.295420
 20
188.942158
 30
0.0
 10
131.295420
 20
187.248824
 30
0.0
 10
137.935945
 20
187.248824
 30
0.0
 10
137.935945
 20
188.942158
 30
0.0
 10
144.576464
 20
188.942158
 30
0.0
 10
144.576464
 20
187.248824
 30
0.0
 10
151.216990
 20
187.248824
 30
0.0
 10
151.216990
 20
188.942158
 30
0.0
 10
157.857515
 20
188.942158
 30
0.0
 10
157.857515
 20
187.248824
 30
0.0
 10
164.498034
 20
187.248824
 30
0.0
 10
164.498034
 20
182.528016
 30
0.0
 10
162.804705
 20
182.528016
 30
0.0
 10
162.804705
 20
176.113875
 30
0.0
 10
164.498034
 20
176.113875
 30
0.0
 10
164.498034
 20
169.699733
 30
0.0
 10
162.804705
 20
169.699733
 30
0.0
 10
162.804705
 20
163.285592
 30
0.0
 10
164.498034
 20
163.285592
 30
0.0
 10
164.498034
 20
156.871451
 30
0.0
 10
162.804705
 20
156.871451
 30
0.0
 10
162.804705
 20
150.457309
 30
0.0
 10
164.498034
 20
150.457309
 30
0.0
 10
164.498034
 20
144.043168
 30
0.0
 10
162.804705
 20
144.043168
 30
0.0
 10
162.804705
 20
137.629027
 30
0.0
 10
164.498034
 20
137.629027
 30
0.0
 10
164.498034
 20
131.214885
 30
0.0
 10
162.804705
 20
131.214885
 30
0.0
 10
162.804705
 20
124.800746
 30
0.0
 10
164.498034
 20
124.800746
 30
0.0
 10
164.498034
 20
118.386602
 30
0.0
 10
157.857515
 20
118.386602
 30
0.0
 10
157.857515
 20
120.079938
 30
0.0
 10
151.216990
 20
120.079938
 30
0.0
 10
151.216990
 20
118.386602
 30
0.0
 10
144.576464
 20
118.386602
 30
0.0
 10
144.576464
 20
120.079938
 30
0.0
 10
137.935945
 20
120.079938
 30
0.0
 10
137.935945
 20
118.386602
 30
0.0
 10
131.295420
 20
118.386602
 30
0.0
 10
131.295420
 20
120.079938
 30
0.0
 10
124.654898
 20
120.079938
 30
0.0
 10
124.654898
 20
118.386602
 30
0.0
 10
118.014376
 20
118.386602
 30
0.0
 10
118.014376
 20
120.079938
 30
0.0
 10
111.373853
 20
120.079938
 30
0.0
 10
111.373853
 20
118.386602
 30
0.0
 10
104.733330
 20
118.386602
 30
0.0
 10
104.733330
 20
120.079938
 30
0.0
 10
98.092807
 20
120.079938
 30
0.0
 10
98.092807
 20
118.386602
 30
0.0
 10
91.452285
 20
118.386602
 30
0.0
 10
91.452285
 20
120.079938
 30
0.0
 10
84.811762
 20
120.079938
 30
0.0
 10
84.811762
 20
118.386602
 30
0.0
 10
78.171239
 20
118.386602
 30
0.0
 10
78.171239
 20
120.079938
 30
0.0
 10
71.530716
 20
120.079938
 30
0.0
 10
71.530716
 20
118.386602
 30
0.0
 10
64.890193
 20
118.386602
 30
0.0
 10
64.890193
 20
120.079938
 30
0.0
 10
58.249671
 20
120.079938
 30
0.0
 10
58.249671
 20
118.386602
 30
0.0
 10
51.609148
 20
118.386602
 30
0.0
 10
51.609148
 20
124.800746
 30
0.0
  0
SPLINE
  5
106
100
AcDbEntity
  8
Layer_1
 62
5
100
AcDbSpline
 70
0
 71
3
 72
25
 73
21
 74
19
 40
0.000000
 40
0.000000
 40
0.000000
 40
0.000000
 40
1.181825
 40
2.346737
 40
3.528562
 40
4.710387
 40
5.875299
 40
7.057124
 40
8.238949
 40
9.403861
 40
10.585686
 40
11.767511
 40
12.932423
 40
14.114248
 40
15.296073
 40
16.460985
 40
17.642810
 40
18.824635
 40
19.989547
 40
21.171372
 40
21.171372
 40
21.171372
 40
21.171372
 10
77.573592
 20
153.664380
 30
0.0
 10
77.533129
 20
154.060331
 30
0.0
 10
77.452780
 20
154.846566
 30
0.0
 10
76.829408
 20
155.885588
 30
0.0
 10
75.916685
 20
156.658074
 30
0.0
 10
74.786449
 20
157.067774
 30
0.0
 10
73.587142
 20
157.067774
 30
0.0
 10
72.458490
 20
156.658074
 30
0.0
 10
71.539446
 20
155.885588
 30
0.0
 10
70.939558
 20
154.846566
 30
0.0
 10
70.730107
 20
153.664380
 30
0.0
 10
70.939558
 20
152.482194
 30
0.0
 10
71.539446
 20
151.443172
 30
0.0
 10
72.458490
 20
150.670686
 30
0.0
 10
73.587142
 20
150.260986
 30
0.0
 10
74.786449
 20
150.260986
 30
0.0
 10
75.916685
 20
150.670686
 30
0.0
 10
76.829408
 20
151.443172
 30
0.0
 10
77.452780
 20
152.482194
 30
0.0
 10
77.533129
 20
153.268429
 30
0.0
 10
77.573592
 20
153.664380
 30
0.0
 11
77.573592
 21
153.664380
 31
0.0
 11
77.367433
 21
154.828085
 31
0.0
 11
76.784977
 21
155.836928
 31
0.0
 11
75.880259
 21
156.597320
 31
0.0
 11
74.769381
 21
157.000633
 31
0.0
 11
73.604470
 21
157.000633
 31
0.0
 11
72.493592
 21
156.597320
 31
0.0
 11
71.588874
 21
155.836928
 31
0.0
 11
71.006418
 21
154.828085
 31
0.0
 11
70.800258
 21
153.664380
 31
0.0
 11
71.006418
 21
152.500675
 31
0.0
 11
71.588874
 21
151.491832
 31
0.0
 11
72.493592
 21
150.731440
 31
0.0
 11
73.604470
 21
150.328127
 31
0.0
 11
74.769381
 21
150.328127
 31
0.0
 11
75.880259
 21
150.731440
 31
0.0
 11
76.784977
 21
151.491832
 31
0.0
 11
77.367433
 21
152.500675
 31
0.0
 11
77.573592
 21
153.664380
 31
0.0
  0
LWPOLYLINE
  5
107
100
AcDbEntity
  8
Layer_1
 62
5
100
AcDbPolyline
 90
2
 70
1
 10
77.573592
 20
153.664380
 30
0.0
 10
77.573592
 20
153.664380
 30
0.0
  0
SPLINE
  5
108
100
AcDbEntity
  8
Layer_1
 62
5
100
AcDbSpline
 70
0
 71
3
 72
25
 73
21
 74
19
 40
0.000000
 40
0.000000
 40
0.000000
 40
0.000000
 40
1.181983
 40
2.347046
 40
3.529029
 40
4.711012
 40
5.876074
 40
7.058057
 40
8.240040
 40
9.405103
 40
10.587086
 40
11.769069
 40
12.934131
 40
14.116114
 40
15.298097
 40
16.463160
 40
17.645143
 40
18.827126
 40
19.992188
 40
21.174171
 40
21.174171
 40
21.174171
 40
21.174171
 10
111.440258
 20
153.664380
 30
0.0
 10
111.399866
 20
154.060393
 30
0.0
 10
111.319661
 20
154.846750
 30
0.0
 10
110.696346
 20
155.886003
 30
0.0
 10
109.783570
 20
156.658680
 30
0.0
 10
108.653198
 20
157.068490
 30
0.0
 10
107.453726
 20
157.068490
 30
0.0
 10
106.324934
 20
156.658680
 30
0.0
 10
105.405849
 20
155.886003
 30
0.0
 10
104.805976
 20
154.846750
 30
0.0
 10
104.596898
 20
153.664380
 30
0.0
 10
104.805976
 20
152.482011
 30
0.0
 10
105.405849
 20
151.442757
 30
0.0
 10
106.324934
 20
150.670080
 30
0.0
 10
107.453726
 20
150.260271
 30
0.0
 10
108.653198
 20
150.260271
 30
0.0
 10
109.783570
 20
150.670080
 30
0.0
 10
110.696346
 20
151.442757
 30
0.0
 10
111.319661
 20
152.482011
 30
0.0
 10
111.399866
 20
153.268367
 30
0.0
 10
111.440258
 20
153.664380
 30
0.0
 11
111.440258
 21
153.664380
 31
0.0
 11
111.234288
 21
154.828279
 31
0.0
 11
110.651898
 21
155.837334
 31
0.0
 11
109.747130
 21
156.597912
 31
0.0
 11
108.636123
 21
157.001331
 31
0.0
 11
107.471060
 21
157.001331
 31
0.0
 11
106.360053
 21
156.597912
 31
0.0
 11
105.455285
 21
155.837334
 31
0.0
 11
104.872895
 21
154.828279
 31
0.0
 11
104.666925
 21
153.664380
 31
0.0
 11
104.872895
 21
152.500481
 31
0.0
 11
105.455285
 21
151.491426
 31
0.0
 11
106.360053
 21
150.730848
 31
0.0
 11
107.471060
 21
150.327430
 31
0.0
 11
108.636123
 21
150.327430
 31
0.0
 11
109.747130
 21
150.730848
 31
0.0
 11
110.651898
 21
151.491426
 31
0.0
 11
111.234288
 21
152.500481
 31
0.0
 11
111.440258
 21
153.664380
 31
0.0
  0
LWPOLYLINE
  5
109
100
AcDbEntity
  8
Layer_1
 62
5
100
AcDbPolyline
 90
2
 70
1
 10
111.440258
 20
153.664380
 30
0.0
 10
111.440258
 20
153.664380
 30
0.0
  0
LWPOLYLINE
  5
10a
100
AcDbEntity
  8
Layer_1
 62
5
100
AcDbPolyline
 90
2
 70
1
 10
145.306928
 20
153.664380
 30
0.0
 10
145.306928
 20
153.664380
 30
0.0
  0
LWPOLYLINE
  5
10b
100
AcDbEntity
  8
Layer_1
 62
5
100
AcDbPolyline
 90
5
 70
1
 10
126.398036
 20
181.604380
 30
0.0
 10
89.709147
 20
181.604380
 30
0.0
 10
89.709147
 20
172.573269
 30
0.0
 10
126.398036
 20
172.573269
 30
0.0
 10
126.398036
 20
181.604380
 30
0.0
  0
LWPOLYLINE
  5
10c
100
AcDbEntity
  8
Layer_1
 62
1
100
AcDbPolyline
 90
109
 70
0
 10
164.498032
 20
69.639122
 30
0.0
 10
164.498032
 20
76.053267
 30
0.0
 10
157.857509
 20
76.053267
 30
0.0
 10
157.857509
 20
74.359931
 30
0.0
 10
151.216987
 20
74.359931
 30
0.0
 10
151.216987
 20
76.053267
 30
0.0
 10
144.576464
 20
76.053267
 30
0.0
 10
144.576464
 20
74.359931
 30
0.0
 10
137.935941
 20
74.359931
 30
0.0
 10
137.935941
 20
76.053267
 30
0.0
 10
131.295418
 20
76.053267
 30
0.0
 10
131.295418
 20
74.359931
 30
0.0
 10
124.654895
 20
74.359931
 30
0.0
 10
124.654895
 20
76.053267
 30
0.0
 10
118.014373
 20
76.053267
 30
0.0
 10
118.014373
 20
74.359931
 30
0.0
 10
111.373850
 20
74.359931
 30
0.0
 10
111.373850
 20
76.053267
 30
0.0
 10
104.733327
 20
76.053267
 30
0.0
 10
104.733327
 20
74.359931
 30
0.0
 10
98.092804
 20
74.359931
 30
0.0
 10
98.092804
 20
76.053267
 30
0.0
 10
91.452282
 20
76.053267
 30
0.0
 10
91.452282
 20
74.359931
 30
0.0
 10
84.811760
 20
74.359931
 30
0.0
 10
84.811760
 20
76.053267
 30
0.0
 10
78.171235
 20
76.053267
 30
0.0
 10
78.171235
 20
74.359931
 30
0.0
 10
71.530716
 20
74.359931
 30
0.0
 10
71.530716
 20
76.053267
 30
0.0
 10
64.890190
 20
76.053267
 30
0.0
 10
64.890190
 20
74.359931
 30
0.0
 10
58.249665
 20
74.359931
 30
0.0
 10
58.249665
 20
76.053267
 30
0.0
 10
51.609146
 20
76.053267
 30
0.0
 10
51.609146
 20
69.639122
 30
0.0
 10
53.302475
 20
69.639122
 30
0.0
 10
53.302475
 20
63.224983
 30
0.0
 10
51.609146
 20
63.224983
 30
0.0
 10
51.609146
 20
56.810841
 30
0.0
 10
53.302475
 20
56.810841
 30
0.0
 10
53.302475
 20
50.396700
 30
0.0
 10
51.609146
 20
50.396700
 30
0.0
 10
51.609146
 20
43.982559
 30
0.0
 10
53.302475
 20
43.982559
 30
0.0
 10
53.302475
 20
37.568418
 30
0.0
 10
51.609146
 20
37.568418
 30
0.0
 10
51.609146
 20
31.154276
 30
0.0
 10
53.302475
 20
31.154276
 30
0.0
 10
53.302475
 20
24.740135
 30
0.0
 10
51.609146
 20
24.740135
 30
0.0
 10
51.609146
 20
18.325994
 30
0.0
 10
53.302475
 20
18.325994
 30
0.0
 10
53.302475
 20
11.911853
 30
0.0
 10
51.609146
 20
11.911853
 30
0.0
 10
51.609146
 20
7.191044
 30
0.0
 10
58.249665
 20
7.191044
 30
0.0
 10
58.249665
 20
5.497711
 30
0.0
 10
64.890190
 20
5.497711
 30
0.0
 10
64.890190
 20
7.191044
 30
0.0
 10
71.530716
 20
7.191044
 30
0.0
 10
71.530716
 20
5.497711
 30
0.0
 10
78.171235
 20
5.497711
 30
0.0
 10
78.171235
 20
7.191044
 30
0.0
 10
84.811760
 20
7.191044
 30
0.0
 10
84.811760
 20
5.497711
 30
0.0
 10
91.452282
 20
5.497711
 30
0.0
 10
91.452282
 20
7.191044
 30
0.0
 10
98.092804
 20
7.191044
 30
0.0
 10
98.092804
 20
5.497711
 30
0.0
 10
104.733327
 20
5.497711
 30
0.0
 10
104.733327
 20
7.191044
 30
0.0
 10
111.373850
 20
7.191044
 30
0.0
 10
111.373850
 20
5.497711
 30
0.0
 10
118.014373
 20
5.497711
 30
0.0
 10
118.014373
 20
7.191044
 30
0.0
 10
124.654895
 20
7.191044
 30
0.0
 10
124.654895
 20
5.497711
 30
0.0
 10
131.295418
 20
5.497711
 30
0.0
 10
131.295418
 20
7.191044
 30
0.0
 10
137.935941
 20
7.191044
 30
0.0
 10
137.935941
 20
5.497711
 30
0.0
 10
144.576464
 20
5.497711
 30
0.0
 10
144.576464
 20
7.191044
 30
0.0
 10
151.216987
 20
7.191044
 30
0.0
 10
151.216987
 20
5.497711
 30
0.0
 10
157.857509
 20
5.497711
 30
0.0
 10
157.857509
 20
7.191044
 30
0.0
 10
164.498032
 20
7.191044
 30
0.0
 10
164.498032
 20
11.911853
 30
0.0
 10
162.804699
 20
11.911853
 30
0.0
 10
162.804699
 20
18.325994
 30
0.0
 10
164.498032
 20
18.325994
 30
0.0
 10
164.498032
 20
24.740135
 30
0.0
 10
162.804699
 20
24.740135
 30
0.0
 10
162.804699
 20
31.154276
 30
0.0
 10
164.498032
 20
31.154276
 30
0.0
 10
164.498032
 20
37.568418
 30
0.0
 10
162.804699
 20
37.568418
 30
0.0
 10
162.804699
 20
43.982559
 30
0.0
 10
164.498032
 20
43.982559
 30
0.0
 10
164.498032
 20
50.396700
 30
0.0
 10
162.804699
 20
50.396700
 30
0.0
 10
162.804699
 20
56.810841
 30
0.0
 10
164.498032
 20
56.810841
 30
0.0
 10
164.498032
 20
63.224983
 30
0.0
 10
162.804699
 20
63.224983
 30
0.0
 10
162.804699
 20
69.639122
 30
0.0
 10
164.498032
 20
69.639122
 30
0.0
  0
LWPOLYLINE
  5
10d
100
AcDbEntity
  8
Layer_1
 62
1
100
AcDbPolyline
 90
69
 70
0
 10
49.915815
 20
124.800746
 30
0.0
 10
49.915815
 20
118.386602
 30
0.0
 10
45.561529
 20
118.386602
 30
0.0
 10
45.561529
 20
120.079938
 30
0.0
 10
39.513910
 20
120.079938
 30
0.0
 10
39.513910
 20
118.386602
 30
0.0
 10
33.466291
 20
118.386602
 30
0.0
 10
33.466291
 20
120.079938
 30
0.0
 10
27.418672
 20
120.079938
 30
0.0
 10
27.418672
 20
118.386602
 30
0.0
 10
21.371053
 20
118.386602
 30
0.0
 10
21.371053
 20
120.079938
 30
0.0
 10
15.323434
 20
120.079938
 30
0.0
 10
15.323434
 20
118.386602
 30
0.0
 10
10.969148
 20
118.386602
 30
0.0
 10
10.969148
 20
124.800746
 30
0.0
 10
9.275815
 20
124.800746
 30
0.0
 10
9.275815
 20
131.214885
 30
0.0
 10
10.969148
 20
131.214885
 30
0.0
 10
10.969148
 20
137.629027
 30
0.0
 10
9.275815
 20
137.629027
 30
0.0
 10
9.275815
 20
144.043168
 30
0.0
 10
10.969148
 20
144.043168
 30
0.0
 10
10.969148
 20
150.457309
 30
0.0
 10
9.275815
 20
150.457309
 30
0.0
 10
9.275815
 20
156.871451
 30
0.0
 10
10.969148
 20
156.871451
 30
0.0
 10
10.969148
 20
163.285592
 30
0.0
 10
9.275815
 20
163.285592
 30
0.0
 10
9.275815
 20
169.699733
 30
0.0
 10
10.969148
 20
169.699733
 30
0.0
 10
10.969148
 20
176.113875
 30
0.0
 10
9.275815
 20
176.113875
 30
0.0
 10
9.275815
 20
182.528016
 30
0.0
 10
10.969148
 20
182.528016
 30
0.0
 10
10.969148
 20
187.248824
 30
0.0
 10
15.323434
 20
187.248824
 30
0.0
 10
15.323434
 20
188.942158
 30
0.0
 10
21.371053
 20
188.942158
 30
0.0
 10
21.371053
 20
187.248824
 30
0.0
 10
27.418672
 20
187.248824
 30
0.0
 10
27.418672
 20
188.942158
 30
0.0
 10
33.466291
 20
188.942158
 30
0.0
 10
33.466291
 20
187.248824
 30
0.0
 10
39.513910
 20
187.248824
 30
0.0
 10
39.513910
 20
188.942158
 30
0.0
 10
45.561529
 20
188.942158
 30
0.0
 10
45.561529
 20
187.248824
 30
0.0
 10
49.915815
 20
187.248824
 30
0.0
 10
49.915815
 20
182.528016
 30
0.0
 10
51.609148
 20
182.528016
 30
0.0
 10
51.609148
 20
176.113875
 30
0.0
 10
49.915815
 20
176.113875
 30
0.0
 10
49.915815
 20
169.699733
 30
0.0
 10
51.609148
 20
169.699733
 30
0.0
 10
51.609148
 20
163.285592
 30
0.0
 10
49.915815
 20
163.285592
 30
0.0
 10
49.915815
 20
156.871451
 30
0.0
 10
51.609148
 20
156.871451
 30
0.0
 10
51.609148
 20
150.457309
 30
0.0
 10
49.915815
 20
150.457309
 30
0.0
 10
49.915815
 20
144.043168
 30
0.0
 10
51.609148
 20
144.043168
 30
0.0
 10
51.609148
 20
137.629027
 30
0.0
 10
49.915815
 20
137.629027
 30
0.0
 10
49.915815
 20
131.214885
 30
0.0
 10
51.609148
 20
131.214885
 30
0.0
 10
51.609148
 20
124.800746
 30
0.0
 10
49.915815
 20
124.800746
 30
0.0
  0
LWPOLYLINE
  5
10e
100
AcDbEntity
  8
Layer_1
 62
1
100
AcDbPolyline
 90
69
 70
0
 10
49.915813
 20
11.911849
 30
0.0
 10
49.915813
 20
5.497704
 30
0.0
 10
45.561527
 20
5.497704
 30
0.0
 10
45.561527
 20
7.191040
 30
0.0
 10
39.513909
 20
7.191040
 30
0.0
 10
39.513909
 20
5.497704
 30
0.0
 10
33.466289
 20
5.497704
 30
0.0
 10
33.466289
 20
7.191040
 30
0.0
 10
27.418671
 20
7.191040
 30
0.0
 10
27.418671
 20
5.497704
 30
0.0
 10
21.371052
 20
5.497704
 30
0.0
 10
21.371052
 20
7.191040
 30
0.0
 10
15.323432
 20
7.191040
 30
0.0
 10
15.323432
 20
5.497704
 30
0.0
 10
10.969147
 20
5.497704
 30
0.0
 10
10.969147
 20
11.911849
 30
0.0
 10
9.275814
 20
11.911849
 30
0.0
 10
9.275814
 20
18.325988
 30
0.0
 10
10.969147
 20
18.325988
 30
0.0
 10
10.969147
 20
24.740129
 30
0.0
 10
9.275814
 20
24.740129
 30
0.0
 10
9.275814
 20
31.154270
 30
0.0
 10
10.969147
 20
31.154270
 30
0.0
 10
10.969147
 20
37.568412
 30
0.0
 10
9.275814
 20
37.568412
 30
0.0
 10
9.275814
 20
43.982553
 30
0.0
 10
10.969147
 20
43.982553
 30
0.0
 10
10.969147
 20
50.396694
 30
0.0
 10
9.275814
 20
50.396694
 30
0.0
 10
9.275814
 20
56.810835
 30
0.0
 10
10.969147
 20
56.810835
 30
0.0
 10
10.969147
 20
63.224977
 30
0.0
 10
9.275814
 20
63.224977
 30
0.0
 10
9.275814
 20
69.639118
 30
0.0
 10
10.969147
 20
69.639118
 30
0.0
 10
10.969147
 20
74.359927
 30
0.0
 10
15.323432
 20
74.359927
 30
0.0
 10
15.323432
 20
76.053260
 30
0.0
 10
21.371052
 20
76.053260
 30
0.0
 10
21.371052
 20
74.359927
 30
0.0
 10
27.418671
 20
74.359927
 30
0.0
 10
27.418671
 20
76.053260
 30
0.0
 10
33.466289
 20
76.053260
 30
0.0
 10
33.466289
 20
74.359927
 30
0.0
 10
39.513909
 20
74.359927
 30
0.0
 10
39.513909
 20
76.053260
 30
0.0
 10
45.561527
 20
76.053260
 30
0.0
 10
45.561527
 20
74.359927
 30
0.0
 10
49.915813
 20
74.359927
 30
0.0
 10
49.915813
 20
69.639118
 30
0.0
 10
51.609146
 20
69.639118
 30
0.0
 10
51.609146
 20
63.224977
 30
0.0
 10
49.915813
 20
63.224977
 30
0.0
 10
49.915813
 20
56.810835
 30
0.0
 10
51.609146
 20
56.810835
 30
0.0
 10
51.609146
 20
50.396694
 30
0.0
 10
49.915813
 20
50.396694
 30
0.0
 10
49.915813
 20
43.982553
 30
0.0
 10
51.609146
 20
43.982553
 30
0.0
 10
51.609146
 20
37.568412
 30
0.0
 10
49.915813
 20
37.568412
 30
0.0
 10
49.915813
 20
31.154270
 30
0.0
 10
51.609146
 20
31.154270
 30
0.0
 10
51.609146
 20
24.740129
 30
0.0
 10
49.915813
 20
24.740129
 30
0.0
 10
49.915813
 20
18.325988
 30
0.0
 10
51.609146
 20
18.325988
 30
0.0
 10
51.609146
 20
11.911849
 30
0.0
 10
49.915813
 20
11.911849
 30
0.0
  0
SPLINE
  5
10f
100
AcDbEntity
  8
Layer_1
 62
5
100
AcDbSpline
 70
0
 71
3
 72
25
 73
21
 74
19
 40
0.000000
 40
0.000000
 40
0.000000
 40
0.000000
 40
1.181826
 40
2.346737
 40
3.528563
 40
4.710389
 40
5.875301
 40
7.057126
 40
8.238952
 40
9.403864
 40
10.585689
 40
11.767515
 40
12.932427
 40
14.114252
 40
15.296078
 40
16.460990
 40
17.642815
 40
18.824641
 40
19.989553
 40
21.171379
 40
21.171379
 40
21.171379
 40
21.171379
 10
145.306928
 20
153.664380
 30
0.0
 10
145.266464
 20
154.060331
 30
0.0
 10
145.186116
 20
154.846567
 30
0.0
 10
144.562743
 20
155.885589
 30
0.0
 10
143.650020
 20
156.658075
 30
0.0
 10
142.519784
 20
157.067775
 30
0.0
 10
141.320477
 20
157.067775
 30
0.0
 10
140.191824
 20
156.658075
 30
0.0
 10
139.272780
 20
155.885589
 30
0.0
 10
138.672892
 20
154.846567
 30
0.0
 10
138.463440
 20
153.664380
 30
0.0
 10
138.672892
 20
152.482194
 30
0.0
 10
139.272780
 20
151.443171
 30
0.0
 10
140.191824
 20
150.670686
 30
0.0
 10
141.320477
 20
150.260985
 30
0.0
 10
142.519784
 20
150.260985
 30
0.0
 10
143.650020
 20
150.670686
 30
0.0
 10
144.562743
 20
151.443171
 30
0.0
 10
145.186116
 20
152.482194
 30
0.0
 10
145.266464
 20
153.268429
 30
0.0
 10
145.306928
 20
153.664380
 30
0.0
 11
145.306928
 21
153.664380
 31
0.0
 11
145.100769
 21
154.828085
 31
0.0
 11
144.518313
 21
155.836929
 31
0.0
 11
143.613594
 21
156.597321
 31
0.0
 11
142.502716
 21
157.000634
 31
0.0
 11
141.337804
 21
157.000634
 31
0.0
 11
140.226926
 21
156.597321
 31
0.0
 11
139.322208
 21
155.836929
 31
0.0
 11
138.739752
 21
154.828085
 31
0.0
 11
138.533592
 21
153.664380
 31
0.0
 11
138.739752
 21
152.500675
 31
0.0
 11
139.322208
 21
151.491832
 31
0.0
 11
140.226926
 21
150.731440
 31
0.0
 11
141.337804
 21
150.328126
 31
0.0
 11
142.502716
 21
150.328126
 31
0.0
 11
143.613594
 21
150.731440
 31
0.0
 11
144.518313
 21
151.491832
 31
0.0
 11
145.100769
 21
152.500675
 31
0.0
 11
145.306928
 21
153.664380
 31
0.0
  0
LWPOLYLINE
  5
110
100
AcDbEntity
  8
Layer_1
 62
1
100
AcDbPolyline
 90
93
 70
0
 10
53.302481
 20
112.338981
 30
0.0
 10
53.302481
 20
116.693266
 30
0.0
 10
58.249671
 20
116.693266
 30
0.0
 10
58.249671
 20
118.386602
 30
0.0
 10
64.890193
 20
118.386602
 30
0.0
 10
64.890193
 20
116.693266
 30
0.0
 10
71.530716
 20
116.693266
 30
0.0
 10
71.530716
 20
118.386602
 30
0.0
 10
78.171239
 20
118.386602
 30
0.0
 10
78.171239
 20
116.693266
 30
0.0
 10
84.811762
 20
116.693266
 30
0.0
 10
84.811762
 20
118.386602
 30
0.0
 10
91.452285
 20
118.386602
 30
0.0
 10
91.452285
 20
116.693266
 30
0.0
 10
98.092807
 20
116.693266
 30
0.0
 10
98.092807
 20
118.386602
 30
0.0
 10
104.733330
 20
118.386602
 30
0.0
 10
104.733330
 20
116.693266
 30
0.0
 10
111.373853
 20
116.693266
 30
0.0
 10
111.373853
 20
118.386602
 30
0.0
 10
118.014376
 20
118.386602
 30
0.0
 10
118.014376
 20
116.693266
 30
0.0
 10
124.654898
 20
116.693266
 30
0.0
 10
124.654898
 20
118.386602
 30
0.0
 10
131.295420
 20
118.386602
 30
0.0
 10
131.295420
 20
116.693266
 30
0.0
 10
137.935945
 20
116.693266
 30
0.0
 10
137.935945
 20
118.386602
 30
0.0
 10
144.576464
 20
118.386602
 30
0.0
 10
144.576464
 20
116.693266
 30
0.0
 10
151.216990
 20
116.693266
 30
0.0
 10
151.216990
 20
118.386602
 30
0.0
 10
157.857515
 20
118.386602
 30
0.0
 10
157.857515
 20
116.693266
 30
0.0
 10
162.804705
 20
116.693266
 30
0.0
 10
162.804705
 20
112.338981
 30
0.0
 10
164.498034
 20
112.338981
 30
0.0
 10
164.498034
 20
106.291368
 30
0.0
 10
162.804705
 20
106.291368
 30
0.0
 10
162.804705
 20
100.243747
 30
0.0
 10
164.498034
 20
100.243747
 30
0.0
 10
164.498034
 20
94.196126
 30
0.0
 10
162.804705
 20
94.196126
 30
0.0
 10
162.804705
 20
88.148505
 30
0.0
 10
164.498034
 20
88.148505
 30
0.0
 10
164.498034
 20
82.100892
 30
0.0
 10
162.804705
 20
82.100892
 30
0.0
 10
162.804705
 20
77.746600
 30
0.0
 10
157.857515
 20
77.746600
 30
0.0
 10
157.857515
 20
76.053271
 30
0.0
 10
151.216990
 20
76.053271
 30
0.0
 10
151.216990
 20
77.746600
 30
0.0
 10
144.576464
 20
77.746600
 30
0.0
 10
144.576464
 20
76.053271
 30
0.0
 10
137.935945
 20
76.053271
 30
0.0
 10
137.935945
 20
77.746600
 30
0.0
 10
131.295420
 20
77.746600
 30
0.0
 10
131.295420
 20
76.053271
 30
0.0
 10
124.654898
 20
76.053271
 30
0.0
 10
124.654898
 20
77.746600
 30
0.0
 10
118.014376
 20
77.746600
 30
0.0
 10
118.014376
 20
76.053271
 30
0.0
 10
111.373853
 20
76.053271
 30
0.0
 10
111.373853
 20
77.746600
 30
0.0
 10
104.733330
 20
77.746600
 30
0.0
 10
104.733330
 20
76.053271
 30
0.0
 10
98.092807
 20
76.053271
 30
0.0
 10
98.092807
 20
77.746600
 30
0.0
 10
91.452285
 20
77.746600
 30
0.0
 10
91.452285
 20
76.053271
 30
0.0
 10
84.811762
 20
76.053271
 30
0.0
 10
84.811762
 20
77.746600
 30
0.0
 10
78.171239
 20
77.746600
 30
0.0
 10
78.171239
 20
76.053271
 30
0.0
 10
71.530716
 20
76.053271
 30
0.0
 10
71.530716
 20
77.746600
 30
0.0
 10
64.890193
 20
77.746600
 30
0.0
 10
64.890193
 20
76.053271
 30
0.0
 10
58.249671
 20
76.053271
 30
0.0
 10
58.249671
 20
77.746600
 30
0.0
 10
53.302481
 20
77.746600
 30
0.0
 10
53.302481
 20
82.100892
 30
0.0
 10
51.609148
 20
82.100892
 30
0.0
 10
51.609148
 20
88.148505
 30
0.0
 10
53.302481
 20
88.148505
 30
0.0
 10
53.302481
 20
94.196126
 30
0.0
 10
51.609148
 20
94.196126
 30
0.0
 10
51.609148
 20
100.243747
 30
0.0
 10
53.302481
 20
100.243747
 30
0.0
 10
53.302481
 20
106.291368
 30
0.0
 10
51.609148
 20
106.291368
 30
0.0
 10
51.609148
 20
112.338981
 30
0.0
 10
53.302481
 20
112.338981
 30
0.0
  0
SPLINE
  5
111
100
AcDbEntity
  8
Layer_1
 62
3
100
AcDbSpline
 70
0
 71
3
 72
10
 73
6
 74
4
 40
0.000000
 40
0.000000
 40
0.000000
 40
0.000000
 40
0.219521
 40
0.419013
 40
0.621897
 40
0.621897
 40
0.621897
 40
0.621897
 10
59.484334
 20
218.653202
 30
0.0
 10
59.492713
 20
218.727042
 30
0.0
 10
59.508706
 20
218.867983
 30
0.0
 10
59.647277
 20
219.039583
 30
0.0
 10
59.773825
 20
219.088328
 30
0.0
 10
59.837632
 20
219.112907
 30
0.0
 11
59.484334
 21
218.653202
 31
0.0
 11
59.530707
 21
218.867769
 31
0.0
 11
59.655589
 21
219.023338
 31
0.0
 11
59.837632
 21
219.112907
 31
0.0
  0
LWPOLYLINE
  5
112
100
AcDbEntity
  8
Layer_1
 62
3
100
AcDbPolyline
 90
3
 70
1
 10
59.837632
 20
219.112907
 30
0.0
 10
59.837632
 20
219.203297
 30
0.0
 10
59.837632
 20
219.203835
 30
0.0
  0
SPLINE
  5
113
100
AcDbEntity
  8
Layer_1
 62
3
100
AcDbSpline
 70
0
 71
3
 72
13
 73
9
 74
7
 40
0.000000
 40
0.000000
 40
0.000000
 40
0.000000
 40
0.012076
 40
0.023690
 40
0.035063
 40
0.052514
 40
0.071971
 40
0.093873
 40
0.093873
 40
0.093873
 40
0.093873
 10
59.837632
 20
219.203835
 30
0.0
 10
59.837441
 20
219.207865
 30
0.0
 10
59.837066
 20
219.215771
 30
0.0
 10
59.833998
 20
219.227147
 30
0.0
 10
59.828224
 20
219.239386
 30
0.0
 10
59.818766
 20
219.252517
 30
0.0
 10
59.805152
 20
219.266708
 30
0.0
 10
59.794308
 20
219.275243
 30
0.0
 10
59.788565
 20
219.279764
 30
0.0
 11
59.837632
 21
219.203835
 31
0.0
 11
59.836618
 21
219.215868
 31
0.0
 11
59.833653
 21
219.227097
 31
0.0
 11
59.828854
 21
219.237409
 31
0.0
 11
59.818865
 21
219.251718
 31
0.0
 11
59.805437
 21
219.265798
 31
0.0
 11
59.788565
 21
219.279764
 31
0.0
  0
LWPOLYLINE
  5
114
100
AcDbEntity
  8
Layer_1
 62
3
100
AcDbPolyline
 90
2
 70
1
 10
59.788565
 20
219.279764
 30
0.0
 10
59.115536
 20
219.771492
 30
0.0
  0
SPLINE
  5
115
100
AcDbEntity
  8
Layer_1
 62
3
100
AcDbSpline
 70
0
 71
3
 72
13
 73
9
 74
7
 40
0.000000
 40
0.000000
 40
0.000000
 40
0.000000
 40
0.059301
 40
0.115233
 40
0.168904
 40
0.225891
 40
0.281857
 40
0.338343
 40
0.338343
 40
0.338343
 40
0.338343
 10
59.115536
 20
219.771492
 30
0.0
 10
59.099940
 20
219.783687
 30
0.0
 10
59.069636
 20
219.807383
 30
0.0
 10
59.031538
 20
219.849174
 30
0.0
 10
58.999932
 20
219.895094
 30
0.0
 10
58.976898
 20
219.945897
 30
0.0
 10
58.961738
 20
220.000731
 30
0.0
 10
58.959934
 20
220.038272
 30
0.0
 10
58.959028
 20
220.057129
 30
0.0
 11
59.115536
 21
219.771492
 31
0.0
 11
59.069892
 21
219.809351
 31
0.0
 11
59.032051
 21
219.850539
 31
0.0
 11
59.001901
 21
219.894941
 31
0.0
 11
58.978159
 21
219.946747
 31
0.0
 11
58.963829
 21
220.000848
 31
0.0
 11
58.959028
 21
220.057129
 31
0.0
  0
LWPOLYLINE
  5
116
100
AcDbEntity
  8
Layer_1
 62
3
100
AcDbPolyline
 90
2
 70
1
 10
58.959028
 20
220.057129
 30
0.0
 10
58.959028
 20
220.152685
 30
0.0
  0
SPLINE
  5
117
100
AcDbEntity
  8
Layer_1
 62
3
100
AcDbSpline
 70
0
 71
3
 72
19
 73
15
 74
13
 40
0.000000
 40
0.000000
 40
0.000000
 40
0.000000
 40
0.180511
 40
0.360127
 40
0.545860
 40
0.772733
 40
0.992851
 40
1.219723
 40
1.446722
 40
1.667013
 40
1.893920
 40
2.079625
 40
2.259093
 40
2.439487
 40
2.439487
 40
2.439487
 40
2.439487
 10
58.959028
 20
220.152685
 30
0.0
 10
58.903477
 20
220.177992
 30
0.0
 10
58.792652
 20
220.228480
 30
0.0
 10
58.681950
 20
220.382730
 30
0.0
 10
58.637901
 20
220.580263
 30
0.0
 10
58.695546
 20
220.794287
 30
0.0
 10
58.861482
 20
220.960011
 30
0.0
 10
59.088729
 20
221.021530
 30
0.0
 10
59.315991
 20
220.959980
 30
0.0
 10
59.482184
 20
220.794363
 30
0.0
 10
59.539952
 20
220.580285
 30
0.0
 10
59.496042
 20
220.382799
 30
0.0
 10
59.385618
 20
220.228459
 30
0.0
 10
59.274870
 20
220.177986
 30
0.0
 10
59.219354
 20
220.152685
 30
0.0
 11
58.959028
 21
220.152685
 31
0.0
 11
58.801871
 21
220.241488
 31
0.0
 11
58.694531
 21
220.385502
 31
0.0
 11
58.654797
 21
220.566935
 31
0.0
 11
58.714026
 21
220.785940
 31
0.0
 11
58.869674
 21
220.941586
 31
0.0
 11
59.088679
 21
221.000813
 31
0.0
 11
59.307815
 21
220.941586
 31
0.0
 11
59.463708
 21
220.785940
 31
0.0
 11
59.523069
 21
220.566935
 31
0.0
 11
59.483469
 21
220.385502
 31
0.0
 11
59.376376
 21
220.241488
 31
0.0
 11
59.219354
 21
220.152685
 31
0.0
  0
LWPOLYLINE
  5
118
100
AcDbEntity
  8
Layer_1
 62
3
100
AcDbPolyline
 90
2
 70
1
 10
59.219354
 20
220.152685
 30
0.0
 10
59.219354
 20
220.057129
 30
0.0
  0
SPLINE
  5
119
100
AcDbEntity
  8
Layer_1
 62
3
100
AcDbSpline
 70
0
 71
3
 72
13
 73
9
 74
7
 40
0.000000
 40
0.000000
 40
0.000000
 40
0.000000
 40
0.012428
 40
0.024112
 40
0.035449
 40
0.052899
 40
0.072356
 40
0.094259
 40
0.094259
 40
0.094259
 40
0.094259
 10
59.219354
 20
220.057129
 30
0.0
 10
59.219509
 20
220.052982
 30
0.0
 10
59.219809
 20
220.044937
 30
0.0
 10
59.222554
 20
220.033348
 30
0.0
 10
59.228229
 20
220.021031
 30
0.0
 10
59.237719
 20
220.007936
 30
0.0
 10
59.251321
 20
219.993737
 30
0.0
 10
59.262168
 20
219.985203
 30
0.0
 10
59.267912
 20
219.980684
 30
0.0
 11
59.219354
 21
220.057129
 31
0.0
 11
59.220235
 21
220.044732
 31
0.0
 11
59.222953
 21
220.033369
 31
0.0
 11
59.227624
 21
220.023039
 31
0.0
 11
59.237609
 21
220.008729
 31
0.0
 11
59.251039
 21
219.994649
 31
0.0
 11
59.267912
 21
219.980684
 31
0.0
  0
LWPOLYLINE
  5
11a
100
AcDbEntity
  8
Layer_1
 62
3
100
AcDbPolyline
 90
10
 70
1
 10
59.267912
 20
219.980684
 30
0.0
 10
59.837632
 20
219.564883
 30
0.0
 10
59.837632
 20
219.641846
 30
0.0
 10
59.837632
 20
221.594813
 30
0.0
 10
59.456955
 20
221.594813
 30
0.0
 10
59.968314
 20
222.454821
 30
0.0
 10
60.479673
 20
221.594813
 30
0.0
 10
60.097958
 20
221.594813
 30
0.0
 10
60.097958
 20
220.002894
 30
0.0
 10
60.667685
 20
220.418694
 30
0.0
  0
SPLINE
  5
11b
100
AcDbEntity
  8
Layer_1
 62
3
100
AcDbSpline
 70
0
 71
3
 72
13
 73
9
 74
7
 40
0.000000
 40
0.000000
 40
0.000000
 40
0.000000
 40
0.021761
 40
0.041201
 40
0.058505
 40
0.069946
 40
0.081743
 40
0.093942
 40
0.093942
 40
0.093942
 40
0.093942
 10
60.667685
 20
220.418694
 30
0.0
 10
60.673463
 20
220.423088
 30
0.0
 10
60.684404
 20
220.431408
 30
0.0
 10
60.698159
 20
220.445354
 30
0.0
 10
60.707393
 20
220.458613
 30
0.0
 10
60.713049
 20
220.470956
 30
0.0
 10
60.715759
 20
220.482549
 30
0.0
 10
60.716080
 20
220.490553
 30
0.0
 10
60.716243
 20
220.494622
 30
0.0
 11
60.667685
 21
220.418694
 31
0.0
 11
60.684671
 21
220.432296
 31
0.0
 11
60.698214
 21
220.446242
 31
0.0
 11
60.707973
 21
220.460531
 31
0.0
 11
60.712644
 21
220.470976
 31
0.0
 11
60.715363
 21
220.482455
 31
0.0
 11
60.716243
 21
220.494622
 31
0.0
  0
LWPOLYLINE
  5
11c
100
AcDbEntity
  8
Layer_1
 62
3
100
AcDbPolyline
 90
8
 70
1
 10
60.716243
 20
220.494622
 30
0.0
 10
60.716243
 20
220.564869
 30
0.0
 10
60.417690
 20
220.564869
 30
0.0
 10
60.417690
 20
221.343267
 30
0.0
 10
61.231211
 20
221.343267
 30
0.0
 10
61.231211
 20
220.564869
 30
0.0
 10
60.976047
 20
220.564869
 30
0.0
 10
60.976047
 20
220.494622
 30
0.0
  0
SPLINE
  5
11d
100
AcDbEntity
  8
Layer_1
 62
3
100
AcDbSpline
 70
0
 71
3
 72
13
 73
9
 74
7
 40
0.000000
 40
0.000000
 40
0.000000
 40
0.000000
 40
0.056714
 40
0.112569
 40
0.169453
 40
0.223105
 40
0.278936
 40
0.338007
 40
0.338007
 40
0.338007
 40
0.338007
 10
60.976047
 20
220.494622
 30
0.0
 10
60.975149
 20
220.475687
 30
0.0
 10
60.973368
 20
220.438105
 30
0.0
 10
60.958184
 20
220.383269
 30
0.0
 10
60.935113
 20
220.332570
 30
0.0
 10
60.903567
 20
220.286704
 30
0.0
 10
60.865497
 20
220.245029
 30
0.0
 10
60.835148
 20
220.221565
 30
0.0
 10
60.819546
 20
220.209502
 30
0.0
 11
60.976047
 21
220.494622
 31
0.0
 11
60.971246
 21
220.438111
 31
0.0
 11
60.956919
 21
220.384125
 31
0.0
 11
60.933173
 21
220.332435
 31
0.0
 11
60.903027
 21
220.288052
 31
0.0
 11
60.865191
 21
220.246998
 31
0.0
 11
60.819546
 21
220.209502
 31
0.0
  0
LWPOLYLINE
  5
11e
100
AcDbEntity
  8
Layer_1
 62
3
100
AcDbPolyline
 90
2
 70
1
 10
60.819546
 20
220.209502
 30
0.0
 10
60.146001
 20
219.717774
 30
0.0
  0
SPLINE
  5
11f
100
AcDbEntity
  8
Layer_1
 62
3
100
AcDbSpline
 70
0
 71
3
 72
13
 73
9
 74
7
 40
0.000000
 40
0.000000
 40
0.000000
 40
0.000000
 40
0.021903
 40
0.041361
 40
0.058811
 40
0.070015
 40
0.081360
 40
0.093323
 40
0.093323
 40
0.093323
 40
0.093323
 10
60.146001
 20
219.717774
 30
0.0
 10
60.140258
 20
219.713254
 30
0.0
 10
60.129412
 20
219.704719
 30
0.0
 10
60.115801
 20
219.690525
 30
0.0
 10
60.106364
 20
219.677450
 30
0.0
 10
60.100677
 20
219.665321
 30
0.0
 10
60.097798
 20
219.654103
 30
0.0
 10
60.097222
 20
219.646345
 30
0.0
 10
60.096927
 20
219.642362
 30
0.0
 11
60.146001
 21
219.717774
 31
0.0
 11
60.129128
 21
219.703809
 31
0.0
 11
60.115698
 21
219.689728
 31
0.0
 11
60.105712
 21
219.675418
 31
0.0
 11
60.101024
 21
219.665242
 31
0.0
 11
60.098174
 21
219.654261
 31
0.0
 11
60.096927
 21
219.642362
 31
0.0
  0
LWPOLYLINE
  5
120
100
AcDbEntity
  8
Layer_1
 62
3
100
AcDbPolyline
 90
5
 70
1
 10
60.096927
 20
219.642362
 30
0.0
 10
60.096927
 20
219.641825
 30
0.0
 10
60.096927
 20
219.314866
 30
0.0
 10
60.096927
 20
219.203297
 30
0.0
 10
60.096927
 20
219.108258
 30
0.0
  0
SPLINE
  5
121
100
AcDbEntity
  8
Layer_1
 62
3
100
AcDbSpline
 70
0
 71
3
 72
16
 73
12
 74
10
 40
0.000000
 40
0.000000
 40
0.000000
 40
0.000000
 40
0.197058
 40
0.391223
 40
0.607114
 40
0.845765
 40
1.090907
 40
1.340916
 40
1.590736
 40
1.835384
 40
2.075118
 40
2.075118
 40
2.075118
 40
2.075118
 10
60.096927
 20
219.108258
 30
0.0
 10
60.158563
 20
219.082814
 30
0.0
 10
60.280930
 20
219.032299
 30
0.0
 10
60.408485
 20
218.863353
 30
0.0
 10
60.453864
 20
218.644746
 30
0.0
 10
60.386634
 20
218.410797
 30
0.0
 10
60.209942
 20
218.228371
 30
0.0
 10
59.959168
 20
218.151062
 30
0.0
 10
59.711087
 20
218.228151
 30
0.0
 10
59.526634
 20
218.410456
 30
0.0
 10
59.498339
 20
218.572836
 30
0.0
 10
59.484334
 20
218.653202
 30
0.0
 11
60.096927
 21
219.108258
 31
0.0
 11
60.271643
 21
219.017121
 31
0.0
 11
60.391035
 21
218.864001
 31
0.0
 11
60.435246
 21
218.652685
 31
0.0
 11
60.370222
 21
218.423063
 31
0.0
 11
60.199483
 21
218.247158
 31
0.0
 11
59.959529
 21
218.176968
 31
0.0
 11
59.719713
 21
218.246957
 31
0.0
 11
59.549224
 21
218.422417
 31
0.0
 11
59.484334
 21
218.653202
 31
0.0
  0
LWPOLYLINE
  5
122
100
AcDbEntity
  8
Layer_1
 62
3
100
AcDbPolyline
 90
2
 70
1
 10
59.484334
 20
218.653202
 30
0.0
 10
59.484334
 20
218.653202
 30
0.0
  0
SPLINE
  5
123
100
AcDbEntity
  8
Layer_1
 62
3
100
AcDbSpline
 70
0
 71
3
 72
13
 73
9
 74
7
 40
0.000000
 40
0.000000
 40
0.000000
 40
0.000000
 40
0.014267
 40
0.029209
 40
0.042947
 40
0.084892
 40
0.127977
 40
0.174167
 40
0.174167
 40
0.174167
 40
0.174167
 10
75.116711
 20
218.185364
 30
0.0
 10
75.121254
 20
218.183953
 30
0.0
 10
75.130554
 20
218.181065
 30
0.0
 10
75.144563
 20
218.177986
 30
0.0
 10
75.168076
 20
218.175755
 30
0.0
 10
75.201096
 20
218.182013
 30
0.0
 10
75.240732
 20
218.203161
 30
0.0
 10
75.258594
 20
218.227397
 30
0.0
 10
75.267836
 20
218.239937
 30
0.0
 11
75.116711
 21
218.185364
 31
0.0
 11
75.130393
 21
218.181321
 31
0.0
 11
75.145008
 21
218.178212
 31
0.0
 11
75.158691
 21
218.176968
 31
0.0
 11
75.200048
 21
218.183964
 31
0.0
 11
75.237674
 21
218.204954
 31
0.0
 11
75.267836
 21
218.239937
 31
0.0
  0
LWPOLYLINE
  5
124
100
AcDbEntity
  8
Layer_1
 62
3
100
AcDbPolyline
 90
2
 70
1
 10
75.267836
 20
218.239937
 30
0.0
 10
76.653148
 20
220.548789
 30
0.0
  0
SPLINE
  5
125
100
AcDbEntity
  8
Layer_1
 62
3
100
AcDbSpline
 70
0
 71
3
 72
13
 73
9
 74
7
 40
0.000000
 40
0.000000
 40
0.000000
 40
0.000000
 40
0.044348
 40
0.088193
 40
0.132541
 40
0.175501
 40
0.219047
 40
0.263909
 40
0.263909
 40
0.263909
 40
0.263909
 10
76.653148
 20
220.548789
 30
0.0
 10
76.659910
 20
220.562126
 30
0.0
 10
76.673357
 20
220.588649
 30
0.0
 10
76.672801
 20
220.634662
 30
0.0
 10
76.655023
 20
220.675339
 30
0.0
 10
76.627487
 20
220.709866
 30
0.0
 10
76.588596
 20
220.733029
 30
0.0
 10
76.559013
 20
220.736125
 30
0.0
 10
76.544002
 20
220.737696
 30
0.0
 11
76.653148
 21
220.548789
 31
0.0
 11
76.669940
 21
220.589836
 31
0.0
 11
76.669940
 21
220.633681
 31
0.0
 11
76.653148
 21
220.674727
 31
0.0
 11
76.625784
 21
220.707844
 31
0.0
 11
76.588158
 21
220.729766
 31
0.0
 11
76.544002
 21
220.737696
 31
0.0
  0
LWPOLYLINE
  5
126
100
AcDbEntity
  8
Layer_1
 62
3
100
AcDbPolyline
 90
3
 70
1
 10
76.544002
 20
220.737696
 30
0.0
 10
76.065440
 20
220.737696
 30
0.0
 10
76.245950
 20
221.552091
 30
0.0
  0
SPLINE
  5
127
100
AcDbEntity
  8
Layer_1
 62
3
100
AcDbSpline
 70
0
 71
3
 72
13
 73
9
 74
7
 40
0.000000
 40
0.000000
 40
0.000000
 40
0.000000
 40
0.037575
 40
0.074156
 40
0.111568
 40
0.147634
 40
0.184567
 40
0.222122
 40
0.222122
 40
0.222122
 40
0.222122
 10
76.245950
 20
221.552091
 30
0.0
 10
76.247688
 20
221.564579
 30
0.0
 10
76.251117
 20
221.589224
 30
0.0
 10
76.242131
 20
221.626344
 30
0.0
 10
76.222041
 20
221.657474
 30
0.0
 10
76.195901
 20
221.683974
 30
0.0
 10
76.161609
 20
221.699990
 30
0.0
 10
76.136746
 20
221.702135
 30
0.0
 10
76.124211
 20
221.703216
 30
0.0
 11
76.245950
 21
221.552091
 31
0.0
 11
76.248749
 21
221.589561
 31
0.0
 11
76.240353
 21
221.625166
 31
0.0
 11
76.220763
 21
221.657039
 31
0.0
 11
76.194798
 21
221.682071
 31
0.0
 11
76.161370
 21
221.697774
 31
0.0
 11
76.124211
 21
221.703216
 31
0.0
  0
LWPOLYLINE
  5
128
100
AcDbEntity
  8
Layer_1
 62
3
100
AcDbPolyline
 90
2
 70
1
 10
76.124211
 20
221.703216
 30
0.0
 10
74.948795
 20
221.703216
 30
0.0
  0
SPLINE
  5
129
100
AcDbEntity
  8
Layer_1
 62
3
100
AcDbSpline
 70
0
 71
3
 72
10
 73
6
 74
4
 40
0.000000
 40
0.000000
 40
0.000000
 40
0.000000
 40
0.066522
 40
0.129847
 40
0.196370
 40
0.196370
 40
0.196370
 40
0.196370
 10
74.948795
 20
221.703216
 30
0.0
 10
74.926435
 20
221.699981
 30
0.0
 10
74.882790
 20
221.693667
 30
0.0
 10
74.832407
 20
221.643283
 30
0.0
 10
74.826092
 20
221.599638
 30
0.0
 10
74.822857
 20
221.577279
 30
0.0
 11
74.948795
 21
221.703216
 31
0.0
 11
74.884427
 21
221.686424
 31
0.0
 11
74.839649
 21
221.641647
 31
0.0
 11
74.822857
 21
221.577279
 31
0.0
  0
LWPOLYLINE
  5
12a
100
AcDbEntity
  8
Layer_1
 62
3
100
AcDbPolyline
 90
2
 70
1
 10
74.822857
 20
221.577279
 30
0.0
 10
74.822857
 20
219.856134
 30
0.0
  0
SPLINE
  5
12b
100
AcDbEntity
  8
Layer_1
 62
3
100
AcDbSpline
 70
0
 71
3
 72
10
 73
6
 74
4
 40
0.000000
 40
0.000000
 40
0.000000
 40
0.000000
 40
0.066522
 40
0.129847
 40
0.196370
 40
0.196370
 40
0.196370
 40
0.196370
 10
74.822857
 20
219.856134
 30
0.0
 10
74.826092
 20
219.833774
 30
0.0
 10
74.832407
 20
219.790129
 30
0.0
 10
74.882790
 20
219.739746
 30
0.0
 10
74.926435
 20
219.733431
 30
0.0
 10
74.948795
 20
219.730196
 30
0.0
 11
74.822857
 21
219.856134
 31
0.0
 11
74.839649
 21
219.791766
 31
0.0
 11
74.884427
 21
219.746988
 31
0.0
 11
74.948795
 21
219.730196
 31
0.0
  0
LWPOLYLINE
  5
12c
100
AcDbEntity
  8
Layer_1
 62
3
100
AcDbPolyline
 90
3
 70
1
 10
74.948795
 20
219.730196
 30
0.0
 10
75.263638
 20
219.730196
 30
0.0
 10
75.032753
 20
218.323895
 30
0.0
  0
LWPOLYLINE
  5
12d
100
AcDbEntity
  8
Layer_1
 62
3
100
AcDbPolyline
 90
2
 70
1
 10
75.116711
 20
218.185364
 30
0.0
 10
75.116711
 20
218.185364
 30
0.0
  0
SPLINE
  5
12e
100
AcDbEntity
  8
Layer_1
 62
3
100
AcDbSpline
 70
0
 71
3
 72
10
 73
6
 74
4
 40
0.000000
 40
0.000000
 40
0.000000
 40
0.000000
 40
0.057587
 40
0.114622
 40
0.173877
 40
0.173877
 40
0.173877
 40
0.173877
 10
75.032753
 20
218.323895
 30
0.0
 10
75.032635
 20
218.304462
 30
0.0
 10
75.032401
 20
218.265782
 30
0.0
 10
75.064069
 20
218.212679
 30
0.0
 10
75.098942
 20
218.194584
 30
0.0
 10
75.116711
 20
218.185364
 30
0.0
 11
75.032753
 21
218.323895
 31
0.0
 11
75.037728
 21
218.266523
 31
0.0
 11
75.066958
 21
218.217548
 31
0.0
 11
75.116711
 21
218.185364
 31
0.0
  0
LWPOLYLINE
  5
12f
100
AcDbEntity
  8
Layer_1
 62
3
100
AcDbPolyline
 90
4
 70
1
 10
75.074732
 20
219.982071
 30
0.0
 10
75.074732
 20
221.451341
 30
0.0
 10
75.968888
 20
221.451341
 30
0.0
 10
75.792576
 20
220.657935
 30
0.0
  0
SPLINE
  5
130
100
AcDbEntity
  8
Layer_1
 62
3
100
AcDbSpline
 70
0
 71
3
 72
16
 73
12
 74
10
 40
0.000000
 40
0.000000
 40
0.000000
 40
0.000000
 40
0.010082
 40
0.021639
 40
0.034078
 40
0.038276
 40
0.042474
 40
0.046672
 40
0.113194
 40
0.176519
 40
0.243042
 40
0.243042
 40
0.243042
 40
0.243042
 10
75.792576
 20
220.657935
 30
0.0
 10
75.791441
 20
220.654754
 30
0.0
 10
75.789005
 20
220.647927
 30
0.0
 10
75.788439
 20
220.636473
 30
0.0
 10
75.788374
 20
220.627101
 30
0.0
 10
75.788377
 20
220.620154
 30
0.0
 10
75.788383
 20
220.615956
 30
0.0
 10
75.788226
 20
220.590992
 30
0.0
 10
75.799258
 20
220.545677
 30
0.0
 10
75.847965
 20
220.495390
 30
0.0
 10
75.891839
 20
220.489062
 30
0.0
 10
75.914315
 20
220.485821
 30
0.0
 11
75.792576
 21
220.657935
 31
0.0
 11
75.789622
 21
220.648296
 31
0.0
 11
75.788533
 21
220.636790
 31
0.0
 11
75.788378
 21
220.624352
 31
0.0
 11
75.788378
 21
220.620154
 31
0.0
 11
75.788378
 21
220.615956
 31
0.0
 11
75.788378
 21
220.611758
 31
0.0
 11
75.805169
 21
220.547390
 31
0.0
 11
75.849947
 21
220.502612
 31
0.0
 11
75.914315
 21
220.485821
 31
0.0
  0
LWPOLYLINE
  5
131
100
AcDbEntity
  8
Layer_1
 62
3
100
AcDbPolyline
 90
4
 70
1
 10
75.914315
 20
220.485821
 30
0.0
 10
76.321513
 20
220.485821
 30
0.0
 10
75.389576
 20
218.928395
 30
0.0
 10
75.536503
 20
219.835144
 30
0.0
  0
LWPOLYLINE
  5
132
100
AcDbEntity
  8
Layer_1
 62
3
100
AcDbPolyline
 90
2
 70
1
 10
75.410565
 20
219.982071
 30
0.0
 10
75.074732
 20
219.982071
 30
0.0
  0
SPLINE
  5
133
100
AcDbEntity
  8
Layer_1
 62
3
100
AcDbSpline
 70
0
 71
3
 72
13
 73
9
 74
7
 40
0.000000
 40
0.000000
 40
0.000000
 40
0.000000
 40
0.037315
 40
0.073111
 40
0.108128
 40
0.145560
 40
0.181650
 40
0.218283
 40
0.218283
 40
0.218283
 40
0.218283
 10
75.536503
 20
219.835144
 30
0.0
 10
75.537097
 20
219.847604
 30
0.0
 10
75.538261
 20
219.872015
 30
0.0
 10
75.528979
 20
219.907756
 30
0.0
 10
75.507429
 20
219.937324
 30
0.0
 10
75.480740
 20
219.962031
 30
0.0
 10
75.447160
 20
219.978954
 30
0.0
 10
75.422824
 20
219.981027
 30
0.0
 10
75.410565
 20
219.982071
 30
0.0
 11
75.536503
 21
219.835144
 31
0.0
 11
75.536347
 21
219.872459
 31
0.0
 11
75.526863
 21
219.906975
 31
0.0
 11
75.507117
 21
219.935894
 31
0.0
 11
75.479287
 21
219.960926
 31
0.0
 11
75.446792
 21
219.976629
 31
0.0
 11
75.410565
 21
219.982071
 31
0.0
  0
LWPOLYLINE
  5
134
100
AcDbEntity
  8
Layer_1
 62
3
100
AcDbPolyline
 90
2
 70
1
 10
84.202003
 20
219.958412
 30
0.0
 10
84.202003
 20
221.414501
 30
0.0
  0
SPLINE
  5
135
100
AcDbEntity
  8
Layer_1
 62
3
100
AcDbSpline
 70
0
 71
3
 72
13
 73
9
 74
7
 40
0.000000
 40
0.000000
 40
0.000000
 40
0.000000
 40
0.393449
 40
0.765591
 40
1.128225
 40
1.490830
 40
1.862964
 40
2.256413
 40
2.256413
 40
2.256413
 40
2.256413
 10
84.202003
 20
221.414501
 30
0.0
 10
84.182713
 20
221.546830
 30
0.0
 10
84.145179
 20
221.804320
 30
0.0
 10
83.875737
 20
222.097348
 30
0.0
 10
83.508591
 20
222.216634
 30
0.0
 10
83.141452
 20
222.097343
 30
0.0
 10
82.872029
 20
221.804316
 30
0.0
 10
82.834495
 20
221.546829
 30
0.0
 10
82.815205
 20
221.414501
 30
0.0
 11
84.202003
 21
221.414501
 31
0.0
 11
84.105758
 21
221.795997
 31
0.0
 11
83.855420
 21
222.071352
 31
0.0
 11
83.508582
 21
222.177216
 31
0.0
 11
83.161775
 21
222.071352
 31
0.0
 11
82.911448
 21
221.795997
 31
0.0
 11
82.815205
 21
221.414501
 31
0.0
  0
LWPOLYLINE
  5
136
100
AcDbEntity
  8
Layer_1
 62
3
100
AcDbPolyline
 90
15
 70
1
 10
82.815205
 20
221.414501
 30
0.0
 10
82.815205
 20
219.958412
 30
0.0
 10
82.676530
 20
219.958412
 30
0.0
 10
82.676530
 20
219.403711
 30
0.0
 10
83.161894
 20
219.403711
 30
0.0
 10
83.161894
 20
218.663709
 30
0.0
 10
83.300569
 20
218.663709
 30
0.0
 10
83.300569
 20
219.403711
 30
0.0
 10
83.716550
 20
219.403711
 30
0.0
 10
83.716550
 20
218.176968
 30
0.0
 10
83.855225
 20
218.176968
 30
0.0
 10
83.855225
 20
219.403711
 30
0.0
 10
84.340589
 20
219.403711
 30
0.0
 10
84.340589
 20
219.958412
 30
0.0
 10
84.202003
 20
219.958412
 30
0.0
  0
LWPOLYLINE
  5
137
100
AcDbEntity
  8
Layer_1
 62
3
100
AcDbPolyline
 90
8
 70
1
 10
84.063283
 20
221.414501
 30
0.0
 10
84.063283
 20
219.958412
 30
0.0
 10
83.785932
 20
219.958412
 30
0.0
 10
83.785932
 20
220.701747
 30
0.0
 10
83.231231
 20
220.886647
 30
0.0
 10
83.231231
 20
219.958412
 30
0.0
 10
82.953925
 20
219.958412
 30
0.0
 10
82.953925
 20
221.414501
 30
0.0
  0
LWPOLYLINE
  5
138
100
AcDbEntity
  8
Layer_1
 62
3
100
AcDbPolyline
 90
5
 70
1
 10
83.647257
 20
219.958412
 30
0.0
 10
83.369906
 20
219.958412
 30
0.0
 10
83.369906
 20
220.694280
 30
0.0
 10
83.647257
 20
220.601785
 30
0.0
 10
83.647257
 20
219.958412
 30
0.0
  0
LWPOLYLINE
  5
139
100
AcDbEntity
  8
Layer_1
 62
3
100
AcDbPolyline
 90
6
 70
1
 10
84.202003
 20
219.542386
 30
0.0
 10
82.815205
 20
219.542386
 30
0.0
 10
82.815205
 20
219.819737
 30
0.0
 10
84.201958
 20
219.819737
 30
0.0
 10
84.201958
 20
219.542386
 30
0.0
 10
84.202003
 20
219.542386
 30
0.0
  0
SPLINE
  5
13a
100
AcDbEntity
  8
Layer_1
 62
3
100
AcDbSpline
 70
0
 71
3
 72
13
 73
9
 74
7
 40
0.000000
 40
0.000000
 40
0.000000
 40
0.000000
 40
0.321474
 40
0.622901
 40
0.913529
 40
1.204205
 40
1.505633
 40
1.827105
 40
1.827105
 40
1.827105
 40
1.827105
 10
82.953925
 20
221.414501
 30
0.0
 10
82.969247
 20
221.522594
 30
0.0
 10
82.998935
 20
221.732040
 30
0.0
 10
83.213305
 20
221.972249
 30
0.0
 10
83.508596
 20
222.071080
 30
0.0
 10
83.803899
 20
221.972262
 30
0.0
 10
84.018282
 20
221.732041
 30
0.0
 10
84.047964
 20
221.522595
 30
0.0
 10
84.063283
 20
221.414501
 30
0.0
 11
82.953925
 21
221.414501
 31
0.0
 11
83.030916
 21
221.726620
 31
0.0
 11
83.231164
 21
221.951918
 31
0.0
 11
83.508582
 21
222.038541
 31
0.0
 11
83.786051
 21
221.951918
 31
0.0
 11
83.986300
 21
221.726620
 31
0.0
 11
84.063283
 21
221.414501
 31
0.0
  0
LWPOLYLINE
  5
13b
100
AcDbEntity
  8
Layer_1
 62
1
100
AcDbPolyline
 90
5
 70
1
 10
16.909251
 20
227.833377
 30
0.0
 10
19.731473
 20
227.833377
 30
0.0
 10
19.731473
 20
225.011155
 30
0.0
 10
16.909251
 20
225.011155
 30
0.0
 10
16.909251
 20
227.833377
 30
0.0
  0
ENDSEC
  0
SECTION
  2
OBJECTS
  0
DICTIONARY
  5
C
330
0
100
AcDbDictionary
  3
ACAD_GROUP
350
D
  3
ACAD_MLINESTYLE
350
17
  0
DICTIONARY
  5
D
330
C
100
AcDbDictionary
  0
DICTIONARY
  5
1A
330
C
100
AcDbDictionary
  0
DICTIONARY
  5
17
330
C
100
AcDbDictionary
  3
STANDARD
350
18
  0
DICTIONARY
  5
19
330
C
100
AcDbDictionary
  0
ENDSEC
  0
EOF
